{
	"asset":{
		"generator":"Khronos glTF Blender I/O v5.2.39",
		"version":"2.0"
	},
	"scene":0,
	"scenes":[
		{
			"name":"Scene",
			"nodes":[
				0
			]
		}
	],
	"nodes":[
		{
			"mesh":0,
			"name":"jx_am_3e704905"
		}
	],
	"materials":[
		{
			"doubleSided":true,
			"name":"jx_conc",
			"normalTexture":{
				"index":0
			},
			"pbrMetallicRoughness":{
				"baseColorTexture":{
					"index":1
				},
				"metallicFactor":0,
				"roughnessFactor":0.9200000166893005
			}
		},
		{
			"doubleSided":true,
			"name":"jx_ceiling",
			"pbrMetallicRoughness":{
				"baseColorTexture":{
					"index":2
				},
				"metallicFactor":0,
				"roughnessFactor":0.9200000166893005
			}
		},
		{
			"doubleSided":true,
			"name":"jx_wall",
			"normalTexture":{
				"index":3
			},
			"pbrMetallicRoughness":{
				"baseColorTexture":{
					"index":4
				},
				"metallicFactor":0,
				"roughnessFactor":0.8799999952316284
			}
		}
	],
	"meshes":[
		{
			"name":"jx_am_3e704905",
			"primitives":[
				{
					"attributes":{
						"POSITION":0,
						"NORMAL":1,
						"TEXCOORD_0":2
					},
					"indices":3,
					"material":0
				},
				{
					"attributes":{
						"POSITION":4,
						"NORMAL":5,
						"TEXCOORD_0":6
					},
					"indices":3,
					"material":1
				},
				{
					"attributes":{
						"POSITION":7,
						"NORMAL":8,
						"TEXCOORD_0":9
					},
					"indices":10,
					"material":2
				},
				{
					"attributes":{
						"POSITION":11,
						"NORMAL":12,
						"TEXCOORD_0":13
					},
					"indices":3,
					"material":2
				}
			]
		}
	],
	"textures":[
		{
			"sampler":0,
			"source":0
		},
		{
			"sampler":0,
			"source":1
		},
		{
			"sampler":0,
			"source":2
		},
		{
			"sampler":0,
			"source":3
		},
		{
			"sampler":0,
			"source":4
		}
	],
	"images":[
		{
			"mimeType":"image/png",
			"name":"concrete_nrm",
			"uri":"../../tex/concrete_nrm.png"
		},
		{
			"mimeType":"image/png",
			"name":"concrete_col",
			"uri":"../../tex/concrete_col.png"
		},
		{
			"mimeType":"image/png",
			"name":"ceiling_col",
			"uri":"../../tex/ceiling_col.png"
		},
		{
			"mimeType":"image/png",
			"name":"wall_nrm",
			"uri":"../../tex/wall_nrm.png"
		},
		{
			"mimeType":"image/png",
			"name":"wall_col",
			"uri":"../../tex/wall_col.png"
		}
	],
	"accessors":[
		{
			"bufferView":0,
			"componentType":5126,
			"count":256,
			"max":[
				3.422100067138672,
				0.40720000863075256,
				21.89780044555664
			],
			"min":[
				-6.569300174713135,
				-0.7817999720573425,
				0
			],
			"type":"VEC3"
		},
		{
			"bufferView":1,
			"componentType":5126,
			"count":256,
			"type":"VEC3"
		},
		{
			"bufferView":2,
			"componentType":5126,
			"count":256,
			"type":"VEC2"
		},
		{
			"bufferView":3,
			"componentType":5123,
			"count":384,
			"type":"SCALAR"
		},
		{
			"bufferView":4,
			"componentType":5126,
			"count":256,
			"max":[
				3.422100067138672,
				6.517499923706055,
				21.89780044555664
			],
			"min":[
				-6.569300174713135,
				4.209499835968018,
				0
			],
			"type":"VEC3"
		},
		{
			"bufferView":5,
			"componentType":5126,
			"count":256,
			"type":"VEC3"
		},
		{
			"bufferView":6,
			"componentType":5126,
			"count":256,
			"type":"VEC2"
		},
		{
			"bufferView":7,
			"componentType":5126,
			"count":512,
			"max":[
				3.422100067138672,
				6.517499923706055,
				21.89780044555664
			],
			"min":[
				-6.569300174713135,
				-0.7817999720573425,
				0
			],
			"type":"VEC3"
		},
		{
			"bufferView":8,
			"componentType":5126,
			"count":512,
			"type":"VEC3"
		},
		{
			"bufferView":9,
			"componentType":5126,
			"count":512,
			"type":"VEC2"
		},
		{
			"bufferView":10,
			"componentType":5123,
			"count":768,
			"type":"SCALAR"
		},
		{
			"bufferView":11,
			"componentType":5126,
			"count":256,
			"max":[
				3.422100067138672,
				6.517499923706055,
				21.89780044555664
			],
			"min":[
				-6.569300174713135,
				-0.7817999720573425,
				11.406800270080566
			],
			"type":"VEC3"
		},
		{
			"bufferView":12,
			"componentType":5126,
			"count":256,
			"type":"VEC3"
		},
		{
			"bufferView":13,
			"componentType":5126,
			"count":256,
			"type":"VEC2"
		}
	],
	"bufferViews":[
		{
			"buffer":0,
			"byteLength":3072,
			"byteOffset":0,
			"target":34962
		},
		{
			"buffer":0,
			"byteLength":3072,
			"byteOffset":3072,
			"target":34962
		},
		{
			"buffer":0,
			"byteLength":2048,
			"byteOffset":6144,
			"target":34962
		},
		{
			"buffer":0,
			"byteLength":768,
			"byteOffset":8192,
			"target":34963
		},
		{
			"buffer":0,
			"byteLength":3072,
			"byteOffset":8960,
			"target":34962
		},
		{
			"buffer":0,
			"byteLength":3072,
			"byteOffset":12032,
			"target":34962
		},
		{
			"buffer":0,
			"byteLength":2048,
			"byteOffset":15104,
			"target":34962
		},
		{
			"buffer":0,
			"byteLength":6144,
			"byteOffset":17152,
			"target":34962
		},
		{
			"buffer":0,
			"byteLength":6144,
			"byteOffset":23296,
			"target":34962
		},
		{
			"buffer":0,
			"byteLength":4096,
			"byteOffset":29440,
			"target":34962
		},
		{
			"buffer":0,
			"byteLength":1536,
			"byteOffset":33536,
			"target":34963
		},
		{
			"buffer":0,
			"byteLength":3072,
			"byteOffset":35072,
			"target":34962
		},
		{
			"buffer":0,
			"byteLength":3072,
			"byteOffset":38144,
			"target":34962
		},
		{
			"buffer":0,
			"byteLength":2048,
			"byteOffset":41216,
			"target":34962
		}
	],
	"samplers":[
		{
			"magFilter":9729,
			"minFilter":9987
		}
	],
	"buffers":[
		{
			"byteLength":43264,
			"uri":"am_3e704905.bin"
		}
	]
}
