{
	"asset":{
		"generator":"Khronos glTF Blender I/O v4.1.63",
		"version":"2.0"
	},
	"scene":0,
	"scenes":[
		{
			"name":"Scene",
			"nodes":[
				0,
				1,
				2
			]
		}
	],
	"nodes":[
		{
			"mesh":0,
			"name":"\u5e73\u9762"
		},
		{
			"mesh":1,
			"name":"\u5e73\u9762.001"
		},
		{
			"mesh":2,
			"name":"\u5186",
			"translation":[
				-0.7361289262771606,
				2.0451583862304688,
				0
			]
		}
	],
	"meshes":[
		{
			"name":"\u5e73\u9762",
			"primitives":[
				{
					"attributes":{
						"POSITION":0,
						"NORMAL":1,
						"TEXCOORD_0":2
					},
					"indices":3
				}
			]
		},
		{
			"name":"\u5e73\u9762.001",
			"primitives":[
				{
					"attributes":{
						"POSITION":4,
						"NORMAL":5,
						"TEXCOORD_0":6
					},
					"indices":7
				}
			]
		},
		{
			"name":"\u5186.001",
			"primitives":[
				{
					"attributes":{
						"POSITION":8,
						"NORMAL":9,
						"TEXCOORD_0":10
					},
					"indices":11
				}
			]
		}
	],
	"accessors":[
		{
			"bufferView":0,
			"componentType":5126,
			"count":208,
			"max":[
				0.9999999403953552,
				4.025465965270996,
				0.10000000149011612
			],
			"min":[
				-0.9999999403953552,
				-6.198861424167035e-09,
				-0.10000000149011612
			],
			"type":"VEC3"
		},
		{
			"bufferView":1,
			"componentType":5126,
			"count":208,
			"type":"VEC3"
		},
		{
			"bufferView":2,
			"componentType":5126,
			"count":208,
			"type":"VEC2"
		},
		{
			"bufferView":3,
			"componentType":5123,
			"count":324,
			"type":"SCALAR"
		},
		{
			"bufferView":4,
			"componentType":5126,
			"count":878,
			"max":[
				0.8999999761581421,
				3.9254660606384277,
				0.1334245204925537
			],
			"min":[
				-0.8999999761581421,
				-7.450580596923828e-09,
				-0.1334245204925537
			],
			"type":"VEC3"
		},
		{
			"bufferView":5,
			"componentType":5126,
			"count":878,
			"type":"VEC3"
		},
		{
			"bufferView":6,
			"componentType":5126,
			"count":878,
			"type":"VEC2"
		},
		{
			"bufferView":7,
			"componentType":5123,
			"count":1512,
			"type":"SCALAR"
		},
		{
			"bufferView":8,
			"componentType":5126,
			"count":744,
			"max":[
				0.35305696725845337,
				0.042700886726379395,
				0.23357951641082764
			],
			"min":[
				-0.04270094633102417,
				-0.04270089045166969,
				-0.23357951641082764
			],
			"type":"VEC3"
		},
		{
			"bufferView":9,
			"componentType":5126,
			"count":744,
			"type":"VEC3"
		},
		{
			"bufferView":10,
			"componentType":5126,
			"count":744,
			"type":"VEC2"
		},
		{
			"bufferView":11,
			"componentType":5123,
			"count":1806,
			"type":"SCALAR"
		}
	],
	"bufferViews":[
		{
			"buffer":0,
			"byteLength":2496,
			"byteOffset":0,
			"target":34962
		},
		{
			"buffer":0,
			"byteLength":2496,
			"byteOffset":2496,
			"target":34962
		},
		{
			"buffer":0,
			"byteLength":1664,
			"byteOffset":4992,
			"target":34962
		},
		{
			"buffer":0,
			"byteLength":648,
			"byteOffset":6656,
			"target":34963
		},
		{
			"buffer":0,
			"byteLength":10536,
			"byteOffset":7304,
			"target":34962
		},
		{
			"buffer":0,
			"byteLength":10536,
			"byteOffset":17840,
			"target":34962
		},
		{
			"buffer":0,
			"byteLength":7024,
			"byteOffset":28376,
			"target":34962
		},
		{
			"buffer":0,
			"byteLength":3024,
			"byteOffset":35400,
			"target":34963
		},
		{
			"buffer":0,
			"byteLength":8928,
			"byteOffset":38424,
			"target":34962
		},
		{
			"buffer":0,
			"byteLength":8928,
			"byteOffset":47352,
			"target":34962
		},
		{
			"buffer":0,
			"byteLength":5952,
			"byteOffset":56280,
			"target":34962
		},
		{
			"buffer":0,
			"byteLength":3612,
			"byteOffset":62232,
			"target":34963
		}
	],
	"buffers":[
		{
			"byteLength":65844,
			"uri":"door.bin"
		}
	]
}
