{
	"asset":{
		"generator":"Khronos glTF Blender I/O v5.2.39",
		"version":"2.0"
	},
	"scene":0,
	"scenes":[
		{
			"name":"Scene",
			"nodes":[
				0
			]
		}
	],
	"nodes":[
		{
			"mesh":0,
			"name":"jx_pipes"
		}
	],
	"materials":[
		{
			"doubleSided":true,
			"name":"jx_metal",
			"pbrMetallicRoughness":{
				"baseColorTexture":{
					"index":0
				},
				"metallicFactor":0.6000000238418579,
				"roughnessFactor":0.44999998807907104
			}
		}
	],
	"meshes":[
		{
			"name":"jx_pipes",
			"primitives":[
				{
					"attributes":{
						"POSITION":0,
						"NORMAL":1,
						"TEXCOORD_0":2
					},
					"indices":3,
					"material":0
				}
			]
		}
	],
	"textures":[
		{
			"sampler":0,
			"source":0
		}
	],
	"images":[
		{
			"mimeType":"image/png",
			"name":"metal_col",
			"uri":"tex/metal_col.png"
		}
	],
	"accessors":[
		{
			"bufferView":0,
			"componentType":5126,
			"count":720,
			"max":[
				3,
				0.004999999888241291,
				0.4000000059604645
			],
			"min":[
				-3,
				-0.2930000126361847,
				-0.3199999928474426
			],
			"type":"VEC3"
		},
		{
			"bufferView":1,
			"componentType":5126,
			"count":720,
			"type":"VEC3"
		},
		{
			"bufferView":2,
			"componentType":5126,
			"count":720,
			"type":"VEC2"
		},
		{
			"bufferView":3,
			"componentType":5123,
			"count":1296,
			"type":"SCALAR"
		}
	],
	"bufferViews":[
		{
			"buffer":0,
			"byteLength":8640,
			"byteOffset":0,
			"target":34962
		},
		{
			"buffer":0,
			"byteLength":8640,
			"byteOffset":8640,
			"target":34962
		},
		{
			"buffer":0,
			"byteLength":5760,
			"byteOffset":17280,
			"target":34962
		},
		{
			"buffer":0,
			"byteLength":2592,
			"byteOffset":23040,
			"target":34963
		}
	],
	"samplers":[
		{
			"magFilter":9729,
			"minFilter":9987
		}
	],
	"buffers":[
		{
			"byteLength":25632,
			"uri":"pipes.bin"
		}
	]
}
