{
	"asset":{
		"generator":"Khronos glTF Blender I/O v5.2.40",
		"version":"2.0"
	},
	"scene":0,
	"scenes":[
		{
			"name":"Scene",
			"nodes":[
				0
			]
		}
	],
	"nodes":[
		{
			"mesh":0,
			"name":"sh_col"
		}
	],
	"materials":[
		{
			"doubleSided":true,
			"name":"jx_metal",
			"pbrMetallicRoughness":{
				"baseColorTexture":{
					"index":0
				},
				"metallicFactor":0.6000000238418579,
				"roughnessFactor":0.44999998807907104
			}
		},
		{
			"doubleSided":true,
			"name":"jx_conc",
			"normalTexture":{
				"index":1
			},
			"pbrMetallicRoughness":{
				"baseColorTexture":{
					"index":2
				},
				"metallicFactor":0,
				"roughnessFactor":0.9200000166893005
			}
		},
		{
			"doubleSided":true,
			"name":"jx_dark",
			"pbrMetallicRoughness":{
				"baseColorTexture":{
					"index":3
				},
				"metallicFactor":0,
				"roughnessFactor":0.9800000190734863
			}
		}
	],
	"meshes":[
		{
			"name":"sh_col",
			"primitives":[
				{
					"attributes":{
						"POSITION":0,
						"NORMAL":1,
						"TEXCOORD_0":2
					},
					"indices":3,
					"material":0
				},
				{
					"attributes":{
						"POSITION":4,
						"NORMAL":5,
						"TEXCOORD_0":6
					},
					"indices":7,
					"material":1
				},
				{
					"attributes":{
						"POSITION":8,
						"NORMAL":9,
						"TEXCOORD_0":10
					},
					"indices":11,
					"material":2
				}
			]
		}
	],
	"textures":[
		{
			"sampler":0,
			"source":0
		},
		{
			"sampler":0,
			"source":1
		},
		{
			"sampler":0,
			"source":2
		},
		{
			"sampler":0,
			"source":3
		}
	],
	"images":[
		{
			"mimeType":"image/png",
			"name":"metal_col",
			"uri":"../../tex/metal_col.png"
		},
		{
			"mimeType":"image/png",
			"name":"concrete_nrm",
			"uri":"../../tex/concrete_nrm.png"
		},
		{
			"mimeType":"image/png",
			"name":"concrete_col",
			"uri":"../../tex/concrete_col.png"
		},
		{
			"mimeType":"image/png",
			"name":"dark_col",
			"uri":"../../tex/dark_col.png"
		}
	],
	"accessors":[
		{
			"bufferView":0,
			"componentType":5126,
			"count":200,
			"max":[
				1.3700000047683716,
				9,
				1.3700000047683716
			],
			"min":[
				-1.3700000047683716,
				8.65999984741211,
				-1.3700000047683716
			],
			"type":"VEC3"
		},
		{
			"bufferView":1,
			"componentType":5126,
			"count":200,
			"type":"VEC3"
		},
		{
			"bufferView":2,
			"componentType":5126,
			"count":200,
			"type":"VEC2"
		},
		{
			"bufferView":3,
			"componentType":5123,
			"count":240,
			"type":"SCALAR"
		},
		{
			"bufferView":4,
			"componentType":5126,
			"count":80,
			"max":[
				1.149999976158142,
				8.65999984741211,
				1.149999976158142
			],
			"min":[
				-1.149999976158142,
				0,
				-1.149999976158142
			],
			"type":"VEC3"
		},
		{
			"bufferView":5,
			"componentType":5126,
			"count":80,
			"type":"VEC3"
		},
		{
			"bufferView":6,
			"componentType":5126,
			"count":80,
			"type":"VEC2"
		},
		{
			"bufferView":7,
			"componentType":5123,
			"count":120,
			"type":"SCALAR"
		},
		{
			"bufferView":8,
			"componentType":5126,
			"count":160,
			"max":[
				1.2200000286102295,
				8.5,
				1.2200000286102295
			],
			"min":[
				-1.2200000286102295,
				0.20000000298023224,
				-1.2200000286102295
			],
			"type":"VEC3"
		},
		{
			"bufferView":9,
			"componentType":5126,
			"count":160,
			"type":"VEC3"
		},
		{
			"bufferView":10,
			"componentType":5126,
			"count":160,
			"type":"VEC2"
		},
		{
			"bufferView":11,
			"componentType":5123,
			"count":240,
			"type":"SCALAR"
		}
	],
	"bufferViews":[
		{
			"buffer":0,
			"byteLength":2400,
			"byteOffset":0,
			"target":34962
		},
		{
			"buffer":0,
			"byteLength":2400,
			"byteOffset":2400,
			"target":34962
		},
		{
			"buffer":0,
			"byteLength":1600,
			"byteOffset":4800,
			"target":34962
		},
		{
			"buffer":0,
			"byteLength":480,
			"byteOffset":6400,
			"target":34963
		},
		{
			"buffer":0,
			"byteLength":960,
			"byteOffset":6880,
			"target":34962
		},
		{
			"buffer":0,
			"byteLength":960,
			"byteOffset":7840,
			"target":34962
		},
		{
			"buffer":0,
			"byteLength":640,
			"byteOffset":8800,
			"target":34962
		},
		{
			"buffer":0,
			"byteLength":240,
			"byteOffset":9440,
			"target":34963
		},
		{
			"buffer":0,
			"byteLength":1920,
			"byteOffset":9680,
			"target":34962
		},
		{
			"buffer":0,
			"byteLength":1920,
			"byteOffset":11600,
			"target":34962
		},
		{
			"buffer":0,
			"byteLength":1280,
			"byteOffset":13520,
			"target":34962
		},
		{
			"buffer":0,
			"byteLength":480,
			"byteOffset":14800,
			"target":34963
		}
	],
	"samplers":[
		{
			"magFilter":9729,
			"minFilter":9987
		}
	],
	"buffers":[
		{
			"byteLength":15280,
			"uri":"sh_col.bin"
		}
	]
}
