{
	"asset":{
		"generator":"Khronos glTF Blender I/O v5.2.39",
		"version":"2.0"
	},
	"scene":0,
	"scenes":[
		{
			"name":"Scene",
			"nodes":[
				0
			]
		}
	],
	"nodes":[
		{
			"mesh":0,
			"name":"sh_canopy"
		}
	],
	"materials":[
		{
			"doubleSided":true,
			"name":"jx_metal",
			"pbrMetallicRoughness":{
				"baseColorTexture":{
					"index":0
				},
				"metallicFactor":0.6000000238418579,
				"roughnessFactor":0.44999998807907104
			}
		},
		{
			"doubleSided":true,
			"name":"jx_conc",
			"normalTexture":{
				"index":1
			},
			"pbrMetallicRoughness":{
				"baseColorTexture":{
					"index":2
				},
				"metallicFactor":0,
				"roughnessFactor":0.9200000166893005
			}
		}
	],
	"meshes":[
		{
			"name":"sh_canopy",
			"primitives":[
				{
					"attributes":{
						"POSITION":0,
						"NORMAL":1,
						"TEXCOORD_0":2
					},
					"indices":3,
					"material":0
				},
				{
					"attributes":{
						"POSITION":4,
						"NORMAL":5,
						"TEXCOORD_0":6
					},
					"indices":7,
					"material":1
				}
			]
		}
	],
	"textures":[
		{
			"sampler":0,
			"source":0
		},
		{
			"sampler":0,
			"source":1
		},
		{
			"sampler":0,
			"source":2
		}
	],
	"images":[
		{
			"mimeType":"image/png",
			"name":"metal_col",
			"uri":"../../tex/metal_col.png"
		},
		{
			"mimeType":"image/png",
			"name":"concrete_nrm",
			"uri":"../../tex/concrete_nrm.png"
		},
		{
			"mimeType":"image/png",
			"name":"concrete_col",
			"uri":"../../tex/concrete_col.png"
		}
	],
	"accessors":[
		{
			"bufferView":0,
			"componentType":5126,
			"count":216,
			"max":[
				2.950000047683716,
				1.440000057220459,
				5
			],
			"min":[
				-2.950000047683716,
				-2.207871198654175,
				0
			],
			"type":"VEC3"
		},
		{
			"bufferView":1,
			"componentType":5126,
			"count":216,
			"type":"VEC3"
		},
		{
			"bufferView":2,
			"componentType":5126,
			"count":216,
			"type":"VEC2"
		},
		{
			"bufferView":3,
			"componentType":5123,
			"count":324,
			"type":"SCALAR"
		},
		{
			"bufferView":4,
			"componentType":5126,
			"count":24,
			"max":[
				3,
				0.3400000035762787,
				5
			],
			"min":[
				-3,
				0,
				0
			],
			"type":"VEC3"
		},
		{
			"bufferView":5,
			"componentType":5126,
			"count":24,
			"type":"VEC3"
		},
		{
			"bufferView":6,
			"componentType":5126,
			"count":24,
			"type":"VEC2"
		},
		{
			"bufferView":7,
			"componentType":5123,
			"count":36,
			"type":"SCALAR"
		}
	],
	"bufferViews":[
		{
			"buffer":0,
			"byteLength":2592,
			"byteOffset":0,
			"target":34962
		},
		{
			"buffer":0,
			"byteLength":2592,
			"byteOffset":2592,
			"target":34962
		},
		{
			"buffer":0,
			"byteLength":1728,
			"byteOffset":5184,
			"target":34962
		},
		{
			"buffer":0,
			"byteLength":648,
			"byteOffset":6912,
			"target":34963
		},
		{
			"buffer":0,
			"byteLength":288,
			"byteOffset":7560,
			"target":34962
		},
		{
			"buffer":0,
			"byteLength":288,
			"byteOffset":7848,
			"target":34962
		},
		{
			"buffer":0,
			"byteLength":192,
			"byteOffset":8136,
			"target":34962
		},
		{
			"buffer":0,
			"byteLength":72,
			"byteOffset":8328,
			"target":34963
		}
	],
	"samplers":[
		{
			"magFilter":9729,
			"minFilter":9987
		}
	],
	"buffers":[
		{
			"byteLength":8400,
			"uri":"sh_canopy.bin"
		}
	]
}
