{
	"asset":{
		"generator":"Khronos glTF Blender I/O v5.2.40",
		"version":"2.0"
	},
	"scene":0,
	"scenes":[
		{
			"name":"Scene",
			"nodes":[
				0
			]
		}
	],
	"nodes":[
		{
			"mesh":0,
			"name":"sh_drum"
		}
	],
	"materials":[
		{
			"doubleSided":true,
			"name":"jx_metal",
			"pbrMetallicRoughness":{
				"baseColorTexture":{
					"index":0
				},
				"metallicFactor":0.6000000238418579,
				"roughnessFactor":0.44999998807907104
			}
		},
		{
			"doubleSided":true,
			"name":"jx_conc",
			"normalTexture":{
				"index":1
			},
			"pbrMetallicRoughness":{
				"baseColorTexture":{
					"index":2
				},
				"metallicFactor":0,
				"roughnessFactor":0.9200000166893005
			}
		}
	],
	"meshes":[
		{
			"name":"sh_drum",
			"primitives":[
				{
					"attributes":{
						"POSITION":0,
						"NORMAL":1,
						"TEXCOORD_0":2
					},
					"indices":3,
					"material":0
				},
				{
					"attributes":{
						"POSITION":4,
						"NORMAL":5,
						"TEXCOORD_0":6
					},
					"indices":7,
					"material":1
				}
			]
		}
	],
	"textures":[
		{
			"sampler":0,
			"source":0
		},
		{
			"sampler":0,
			"source":1
		},
		{
			"sampler":0,
			"source":2
		}
	],
	"images":[
		{
			"mimeType":"image/png",
			"name":"metal_col",
			"uri":"../../tex/metal_col.png"
		},
		{
			"mimeType":"image/png",
			"name":"concrete_nrm",
			"uri":"../../tex/concrete_nrm.png"
		},
		{
			"mimeType":"image/png",
			"name":"concrete_col",
			"uri":"../../tex/concrete_col.png"
		}
	],
	"accessors":[
		{
			"bufferView":0,
			"componentType":5126,
			"count":2524,
			"max":[
				7.159999847412109,
				16.1200008392334,
				7.300000190734863
			],
			"min":[
				-7.300000190734863,
				0,
				-7.300000190734863
			],
			"type":"VEC3"
		},
		{
			"bufferView":1,
			"componentType":5126,
			"count":2524,
			"type":"VEC3"
		},
		{
			"bufferView":2,
			"componentType":5126,
			"count":2524,
			"type":"VEC2"
		},
		{
			"bufferView":3,
			"componentType":5123,
			"count":3114,
			"type":"SCALAR"
		},
		{
			"bufferView":4,
			"componentType":5126,
			"count":352,
			"max":[
				7,
				16,
				7
			],
			"min":[
				-7,
				0,
				-7
			],
			"type":"VEC3"
		},
		{
			"bufferView":5,
			"componentType":5126,
			"count":352,
			"type":"VEC3"
		},
		{
			"bufferView":6,
			"componentType":5126,
			"count":352,
			"type":"VEC2"
		},
		{
			"bufferView":7,
			"componentType":5123,
			"count":528,
			"type":"SCALAR"
		}
	],
	"bufferViews":[
		{
			"buffer":0,
			"byteLength":30288,
			"byteOffset":0,
			"target":34962
		},
		{
			"buffer":0,
			"byteLength":30288,
			"byteOffset":30288,
			"target":34962
		},
		{
			"buffer":0,
			"byteLength":20192,
			"byteOffset":60576,
			"target":34962
		},
		{
			"buffer":0,
			"byteLength":6228,
			"byteOffset":80768,
			"target":34963
		},
		{
			"buffer":0,
			"byteLength":4224,
			"byteOffset":86996,
			"target":34962
		},
		{
			"buffer":0,
			"byteLength":4224,
			"byteOffset":91220,
			"target":34962
		},
		{
			"buffer":0,
			"byteLength":2816,
			"byteOffset":95444,
			"target":34962
		},
		{
			"buffer":0,
			"byteLength":1056,
			"byteOffset":98260,
			"target":34963
		}
	],
	"samplers":[
		{
			"magFilter":9729,
			"minFilter":9987
		}
	],
	"buffers":[
		{
			"byteLength":99316,
			"uri":"sh_drum.bin"
		}
	]
}
