{
	"asset":{
		"generator":"Khronos glTF Blender I/O v5.2.39",
		"version":"2.0"
	},
	"scene":0,
	"scenes":[
		{
			"name":"JUNCTION - The Connected Gallery.001",
			"nodes":[
				0
			]
		}
	],
	"nodes":[
		{
			"mesh":0,
			"name":"V14_connected_knot"
		}
	],
	"materials":[
		{
			"doubleSided":true,
			"name":"V14_gold",
			"pbrMetallicRoughness":{
				"baseColorTexture":{
					"index":0
				},
				"metallicFactor":0.3499999940395355,
				"roughnessFactor":0.6200000047683716
			}
		},
		{
			"doubleSided":true,
			"name":"V14_ink",
			"pbrMetallicRoughness":{
				"baseColorTexture":{
					"index":1
				},
				"metallicFactor":0,
				"roughnessFactor":0.6200000047683716
			}
		}
	],
	"meshes":[
		{
			"name":"Continuous knot",
			"primitives":[
				{
					"attributes":{
						"POSITION":0,
						"NORMAL":1,
						"TEXCOORD_0":2,
						"TEXCOORD_1":3
					},
					"indices":4,
					"material":0
				},
				{
					"attributes":{
						"POSITION":5,
						"NORMAL":6,
						"TEXCOORD_0":7,
						"TEXCOORD_1":8
					},
					"indices":9,
					"material":1
				}
			]
		}
	],
	"textures":[
		{
			"sampler":0,
			"source":0
		},
		{
			"sampler":0,
			"source":1
		}
	],
	"images":[
		{
			"mimeType":"image/png",
			"name":"v14_gold",
			"uri":"textures/v14_gold.png"
		},
		{
			"mimeType":"image/png",
			"name":"v14_ink",
			"uri":"textures/v14_ink.png"
		}
	],
	"accessors":[
		{
			"bufferView":0,
			"componentType":5126,
			"count":2400,
			"max":[
				1.4535962343215942,
				3.6838393211364746,
				0.5535675287246704
			],
			"min":[
				-1.208332896232605,
				0.9118627905845642,
				-0.5536246299743652
			],
			"type":"VEC3"
		},
		{
			"bufferView":1,
			"componentType":5126,
			"count":2400,
			"type":"VEC3"
		},
		{
			"bufferView":2,
			"componentType":5126,
			"count":2400,
			"type":"VEC2"
		},
		{
			"bufferView":3,
			"componentType":5126,
			"count":2400,
			"type":"VEC2"
		},
		{
			"bufferView":4,
			"componentType":5123,
			"count":14400,
			"type":"SCALAR"
		},
		{
			"bufferView":5,
			"componentType":5126,
			"count":384,
			"max":[
				1.149999976158142,
				0.699999988079071,
				0.800000011920929
			],
			"min":[
				-1.149999976158142,
				0,
				-0.800000011920929
			],
			"type":"VEC3"
		},
		{
			"bufferView":6,
			"componentType":5126,
			"count":384,
			"type":"VEC3"
		},
		{
			"bufferView":7,
			"componentType":5126,
			"count":384,
			"type":"VEC2"
		},
		{
			"bufferView":8,
			"componentType":5126,
			"count":384,
			"type":"VEC2"
		},
		{
			"bufferView":9,
			"componentType":5123,
			"count":564,
			"type":"SCALAR"
		}
	],
	"bufferViews":[
		{
			"buffer":0,
			"byteLength":28800,
			"byteOffset":0,
			"target":34962
		},
		{
			"buffer":0,
			"byteLength":28800,
			"byteOffset":28800,
			"target":34962
		},
		{
			"buffer":0,
			"byteLength":19200,
			"byteOffset":57600,
			"target":34962
		},
		{
			"buffer":0,
			"byteLength":19200,
			"byteOffset":76800,
			"target":34962
		},
		{
			"buffer":0,
			"byteLength":28800,
			"byteOffset":96000,
			"target":34963
		},
		{
			"buffer":0,
			"byteLength":4608,
			"byteOffset":124800,
			"target":34962
		},
		{
			"buffer":0,
			"byteLength":4608,
			"byteOffset":129408,
			"target":34962
		},
		{
			"buffer":0,
			"byteLength":3072,
			"byteOffset":134016,
			"target":34962
		},
		{
			"buffer":0,
			"byteLength":3072,
			"byteOffset":137088,
			"target":34962
		},
		{
			"buffer":0,
			"byteLength":1128,
			"byteOffset":140160,
			"target":34963
		}
	],
	"samplers":[
		{
			"magFilter":9729,
			"minFilter":9987
		}
	],
	"buffers":[
		{
			"byteLength":141288,
			"uri":"connected_knot.bin"
		}
	]
}
