{
	"asset":{
		"generator":"Khronos glTF Blender I/O v5.2.39",
		"version":"2.0"
	},
	"scene":0,
	"scenes":[
		{
			"name":"JUNCTION - The Connected Gallery.001",
			"nodes":[
				0
			]
		}
	],
	"nodes":[
		{
			"mesh":0,
			"name":"V14_connection_console"
		}
	],
	"materials":[
		{
			"doubleSided":true,
			"name":"V14_ink",
			"pbrMetallicRoughness":{
				"baseColorTexture":{
					"index":0
				},
				"metallicFactor":0,
				"roughnessFactor":0.6200000047683716
			}
		},
		{
			"doubleSided":true,
			"name":"V14_chalk",
			"pbrMetallicRoughness":{
				"baseColorTexture":{
					"index":1
				},
				"metallicFactor":0,
				"roughnessFactor":0.6200000047683716
			}
		},
		{
			"doubleSided":true,
			"name":"V14_gold",
			"pbrMetallicRoughness":{
				"baseColorTexture":{
					"index":2
				},
				"metallicFactor":0.3499999940395355,
				"roughnessFactor":0.6200000047683716
			}
		}
	],
	"meshes":[
		{
			"name":"\u7acb\u65b9\u4f53.014",
			"primitives":[
				{
					"attributes":{
						"POSITION":0,
						"NORMAL":1,
						"TEXCOORD_0":2,
						"TEXCOORD_1":3
					},
					"indices":4,
					"material":0
				},
				{
					"attributes":{
						"POSITION":5,
						"NORMAL":6,
						"TEXCOORD_0":7,
						"TEXCOORD_1":8
					},
					"indices":4,
					"material":1
				},
				{
					"attributes":{
						"POSITION":9,
						"NORMAL":10,
						"TEXCOORD_0":11,
						"TEXCOORD_1":12
					},
					"indices":13,
					"material":2
				}
			]
		}
	],
	"textures":[
		{
			"sampler":0,
			"source":0
		},
		{
			"sampler":0,
			"source":1
		},
		{
			"sampler":0,
			"source":2
		}
	],
	"images":[
		{
			"mimeType":"image/png",
			"name":"v14_ink",
			"uri":"textures/v14_ink.png"
		},
		{
			"mimeType":"image/png",
			"name":"v14_chalk",
			"uri":"textures/v14_chalk.png"
		},
		{
			"mimeType":"image/png",
			"name":"v14_gold",
			"uri":"textures/v14_gold.png"
		}
	],
	"accessors":[
		{
			"bufferView":0,
			"componentType":5126,
			"count":384,
			"max":[
				0.42500001192092896,
				1,
				0.3499999940395355
			],
			"min":[
				-0.42500001192092896,
				0,
				-0.3499999940395355
			],
			"type":"VEC3"
		},
		{
			"bufferView":1,
			"componentType":5126,
			"count":384,
			"type":"VEC3"
		},
		{
			"bufferView":2,
			"componentType":5126,
			"count":384,
			"type":"VEC2"
		},
		{
			"bufferView":3,
			"componentType":5126,
			"count":384,
			"type":"VEC2"
		},
		{
			"bufferView":4,
			"componentType":5123,
			"count":564,
			"type":"SCALAR"
		},
		{
			"bufferView":5,
			"componentType":5126,
			"count":384,
			"max":[
				0.5099999904632568,
				1.0999999046325684,
				0.4300000071525574
			],
			"min":[
				-0.5099999904632568,
				0.9399999976158142,
				-0.4300000071525574
			],
			"type":"VEC3"
		},
		{
			"bufferView":6,
			"componentType":5126,
			"count":384,
			"type":"VEC3"
		},
		{
			"bufferView":7,
			"componentType":5126,
			"count":384,
			"type":"VEC2"
		},
		{
			"bufferView":8,
			"componentType":5126,
			"count":384,
			"type":"VEC2"
		},
		{
			"bufferView":9,
			"componentType":5126,
			"count":1355,
			"max":[
				0.5565739870071411,
				1.8565739393234253,
				0.17000001668930054
			],
			"min":[
				-0.5565739870071411,
				1.0034260749816895,
				-0.07000002264976501
			],
			"type":"VEC3"
		},
		{
			"bufferView":10,
			"componentType":5126,
			"count":1355,
			"type":"VEC3"
		},
		{
			"bufferView":11,
			"componentType":5126,
			"count":1355,
			"type":"VEC2"
		},
		{
			"bufferView":12,
			"componentType":5126,
			"count":1355,
			"type":"VEC2"
		},
		{
			"bufferView":13,
			"componentType":5123,
			"count":7680,
			"type":"SCALAR"
		}
	],
	"bufferViews":[
		{
			"buffer":0,
			"byteLength":4608,
			"byteOffset":0,
			"target":34962
		},
		{
			"buffer":0,
			"byteLength":4608,
			"byteOffset":4608,
			"target":34962
		},
		{
			"buffer":0,
			"byteLength":3072,
			"byteOffset":9216,
			"target":34962
		},
		{
			"buffer":0,
			"byteLength":3072,
			"byteOffset":12288,
			"target":34962
		},
		{
			"buffer":0,
			"byteLength":1128,
			"byteOffset":15360,
			"target":34963
		},
		{
			"buffer":0,
			"byteLength":4608,
			"byteOffset":16488,
			"target":34962
		},
		{
			"buffer":0,
			"byteLength":4608,
			"byteOffset":21096,
			"target":34962
		},
		{
			"buffer":0,
			"byteLength":3072,
			"byteOffset":25704,
			"target":34962
		},
		{
			"buffer":0,
			"byteLength":3072,
			"byteOffset":28776,
			"target":34962
		},
		{
			"buffer":0,
			"byteLength":16260,
			"byteOffset":31848,
			"target":34962
		},
		{
			"buffer":0,
			"byteLength":16260,
			"byteOffset":48108,
			"target":34962
		},
		{
			"buffer":0,
			"byteLength":10840,
			"byteOffset":64368,
			"target":34962
		},
		{
			"buffer":0,
			"byteLength":10840,
			"byteOffset":75208,
			"target":34962
		},
		{
			"buffer":0,
			"byteLength":15360,
			"byteOffset":86048,
			"target":34963
		}
	],
	"samplers":[
		{
			"magFilter":9729,
			"minFilter":9987
		}
	],
	"buffers":[
		{
			"byteLength":101408,
			"uri":"connection_console.bin"
		}
	]
}
