{
	"asset":{
		"generator":"Khronos glTF Blender I/O v5.2.39",
		"version":"2.0"
	},
	"scene":0,
	"scenes":[
		{
			"name":"JUNCTION - The Connected Gallery.001",
			"nodes":[
				0
			]
		}
	],
	"nodes":[
		{
			"mesh":0,
			"name":"V14_inverted_stair"
		}
	],
	"materials":[
		{
			"doubleSided":true,
			"name":"V14_chalk",
			"pbrMetallicRoughness":{
				"baseColorTexture":{
					"index":0
				},
				"metallicFactor":0,
				"roughnessFactor":0.6200000047683716
			}
		},
		{
			"doubleSided":true,
			"name":"V14_gold",
			"pbrMetallicRoughness":{
				"baseColorTexture":{
					"index":1
				},
				"metallicFactor":0.3499999940395355,
				"roughnessFactor":0.6200000047683716
			}
		},
		{
			"doubleSided":true,
			"name":"V14_copper",
			"pbrMetallicRoughness":{
				"baseColorTexture":{
					"index":2
				},
				"metallicFactor":0.4000000059604645,
				"roughnessFactor":0.6200000047683716
			}
		},
		{
			"doubleSided":true,
			"name":"V14_ink",
			"pbrMetallicRoughness":{
				"baseColorTexture":{
					"index":3
				},
				"metallicFactor":0,
				"roughnessFactor":0.6200000047683716
			}
		}
	],
	"meshes":[
		{
			"name":"\u7acb\u65b9\u4f53.056",
			"primitives":[
				{
					"attributes":{
						"POSITION":0,
						"NORMAL":1,
						"TEXCOORD_0":2,
						"TEXCOORD_1":3
					},
					"indices":4,
					"material":0
				},
				{
					"attributes":{
						"POSITION":5,
						"NORMAL":6,
						"TEXCOORD_0":7,
						"TEXCOORD_1":8
					},
					"indices":9,
					"material":1
				},
				{
					"attributes":{
						"POSITION":10,
						"NORMAL":11,
						"TEXCOORD_0":12,
						"TEXCOORD_1":13
					},
					"indices":14,
					"material":2
				},
				{
					"attributes":{
						"POSITION":15,
						"NORMAL":16,
						"TEXCOORD_0":17,
						"TEXCOORD_1":18
					},
					"indices":19,
					"material":3
				}
			]
		}
	],
	"textures":[
		{
			"sampler":0,
			"source":0
		},
		{
			"sampler":0,
			"source":1
		},
		{
			"sampler":0,
			"source":2
		},
		{
			"sampler":0,
			"source":3
		}
	],
	"images":[
		{
			"mimeType":"image/png",
			"name":"v14_chalk",
			"uri":"textures/v14_chalk.png"
		},
		{
			"mimeType":"image/png",
			"name":"v14_gold",
			"uri":"textures/v14_gold.png"
		},
		{
			"mimeType":"image/png",
			"name":"v14_copper",
			"uri":"textures/v14_copper.png"
		},
		{
			"mimeType":"image/png",
			"name":"v14_ink",
			"uri":"textures/v14_ink.png"
		}
	],
	"accessors":[
		{
			"bufferView":0,
			"componentType":5126,
			"count":6144,
			"max":[
				2,
				-0.8000001907348633,
				8.017499923706055
			],
			"min":[
				-2,
				-4,
				-8.017499923706055
			],
			"type":"VEC3"
		},
		{
			"bufferView":1,
			"componentType":5126,
			"count":6144,
			"type":"VEC3"
		},
		{
			"bufferView":2,
			"componentType":5126,
			"count":6144,
			"type":"VEC2"
		},
		{
			"bufferView":3,
			"componentType":5126,
			"count":6144,
			"type":"VEC2"
		},
		{
			"bufferView":4,
			"componentType":5123,
			"count":9024,
			"type":"SCALAR"
		},
		{
			"bufferView":5,
			"componentType":5126,
			"count":6186,
			"max":[
				1.975000023841858,
				0.2606182098388672,
				7.512123107910156
			],
			"min":[
				-1.975000023841858,
				-3.80649995803833,
				-8.007499694824219
			],
			"type":"VEC3"
		},
		{
			"bufferView":6,
			"componentType":5126,
			"count":6186,
			"type":"VEC3"
		},
		{
			"bufferView":7,
			"componentType":5126,
			"count":6186,
			"type":"VEC2"
		},
		{
			"bufferView":8,
			"componentType":5126,
			"count":6186,
			"type":"VEC2"
		},
		{
			"bufferView":9,
			"componentType":5123,
			"count":9144,
			"type":"SCALAR"
		},
		{
			"bufferView":10,
			"componentType":5126,
			"count":668,
			"max":[
				1.934999942779541,
				0.19999980926513672,
				7.533287048339844
			],
			"min":[
				-1.934999942779541,
				-3.799999952316284,
				-7.533287048339844
			],
			"type":"VEC3"
		},
		{
			"bufferView":11,
			"componentType":5126,
			"count":668,
			"type":"VEC3"
		},
		{
			"bufferView":12,
			"componentType":5126,
			"count":668,
			"type":"VEC2"
		},
		{
			"bufferView":13,
			"componentType":5126,
			"count":668,
			"type":"VEC2"
		},
		{
			"bufferView":14,
			"componentType":5123,
			"count":1920,
			"type":"SCALAR"
		},
		{
			"bufferView":15,
			"componentType":5126,
			"count":40,
			"max":[
				1.409999966621399,
				-0.9507861137390137,
				8.029842376708984
			],
			"min":[
				-1.409999966621399,
				-4.449213981628418,
				-8.029842376708984
			],
			"type":"VEC3"
		},
		{
			"bufferView":16,
			"componentType":5126,
			"count":40,
			"type":"VEC3"
		},
		{
			"bufferView":17,
			"componentType":5126,
			"count":40,
			"type":"VEC2"
		},
		{
			"bufferView":18,
			"componentType":5126,
			"count":40,
			"type":"VEC2"
		},
		{
			"bufferView":19,
			"componentType":5123,
			"count":120,
			"type":"SCALAR"
		}
	],
	"bufferViews":[
		{
			"buffer":0,
			"byteLength":73728,
			"byteOffset":0,
			"target":34962
		},
		{
			"buffer":0,
			"byteLength":73728,
			"byteOffset":73728,
			"target":34962
		},
		{
			"buffer":0,
			"byteLength":49152,
			"byteOffset":147456,
			"target":34962
		},
		{
			"buffer":0,
			"byteLength":49152,
			"byteOffset":196608,
			"target":34962
		},
		{
			"buffer":0,
			"byteLength":18048,
			"byteOffset":245760,
			"target":34963
		},
		{
			"buffer":0,
			"byteLength":74232,
			"byteOffset":263808,
			"target":34962
		},
		{
			"buffer":0,
			"byteLength":74232,
			"byteOffset":338040,
			"target":34962
		},
		{
			"buffer":0,
			"byteLength":49488,
			"byteOffset":412272,
			"target":34962
		},
		{
			"buffer":0,
			"byteLength":49488,
			"byteOffset":461760,
			"target":34962
		},
		{
			"buffer":0,
			"byteLength":18288,
			"byteOffset":511248,
			"target":34963
		},
		{
			"buffer":0,
			"byteLength":8016,
			"byteOffset":529536,
			"target":34962
		},
		{
			"buffer":0,
			"byteLength":8016,
			"byteOffset":537552,
			"target":34962
		},
		{
			"buffer":0,
			"byteLength":5344,
			"byteOffset":545568,
			"target":34962
		},
		{
			"buffer":0,
			"byteLength":5344,
			"byteOffset":550912,
			"target":34962
		},
		{
			"buffer":0,
			"byteLength":3840,
			"byteOffset":556256,
			"target":34963
		},
		{
			"buffer":0,
			"byteLength":480,
			"byteOffset":560096,
			"target":34962
		},
		{
			"buffer":0,
			"byteLength":480,
			"byteOffset":560576,
			"target":34962
		},
		{
			"buffer":0,
			"byteLength":320,
			"byteOffset":561056,
			"target":34962
		},
		{
			"buffer":0,
			"byteLength":320,
			"byteOffset":561376,
			"target":34962
		},
		{
			"buffer":0,
			"byteLength":240,
			"byteOffset":561696,
			"target":34963
		}
	],
	"samplers":[
		{
			"magFilter":9729,
			"minFilter":9987
		}
	],
	"buffers":[
		{
			"byteLength":561936,
			"uri":"inverted_stair.bin"
		}
	]
}
