{
	"asset":{
		"generator":"Khronos glTF Blender I/O v5.2.39",
		"version":"2.0"
	},
	"scene":0,
	"scenes":[
		{
			"name":"JUNCTION - The Connected Gallery.001",
			"nodes":[
				0
			]
		}
	],
	"nodes":[
		{
			"mesh":0,
			"name":"V14_painting_frame"
		}
	],
	"materials":[
		{
			"doubleSided":true,
			"name":"V14_ink",
			"pbrMetallicRoughness":{
				"baseColorTexture":{
					"index":0
				},
				"metallicFactor":0,
				"roughnessFactor":0.6200000047683716
			}
		},
		{
			"doubleSided":true,
			"name":"V14_gold",
			"pbrMetallicRoughness":{
				"baseColorTexture":{
					"index":1
				},
				"metallicFactor":0.3499999940395355,
				"roughnessFactor":0.6200000047683716
			}
		},
		{
			"doubleSided":true,
			"name":"V14_copper",
			"pbrMetallicRoughness":{
				"baseColorTexture":{
					"index":2
				},
				"metallicFactor":0.4000000059604645,
				"roughnessFactor":0.6200000047683716
			}
		}
	],
	"meshes":[
		{
			"name":"\u7acb\u65b9\u4f53.016",
			"primitives":[
				{
					"attributes":{
						"POSITION":0,
						"NORMAL":1,
						"TEXCOORD_0":2
					},
					"indices":3,
					"material":0
				},
				{
					"attributes":{
						"POSITION":4,
						"NORMAL":5,
						"TEXCOORD_0":6
					},
					"indices":7,
					"material":1
				},
				{
					"attributes":{
						"POSITION":8,
						"NORMAL":9,
						"TEXCOORD_0":10
					},
					"indices":11,
					"material":2
				}
			]
		}
	],
	"textures":[
		{
			"sampler":0,
			"source":0
		},
		{
			"sampler":0,
			"source":1
		},
		{
			"sampler":0,
			"source":2
		}
	],
	"images":[
		{
			"mimeType":"image/png",
			"name":"v14_ink",
			"uri":"textures/v14_ink.png"
		},
		{
			"mimeType":"image/png",
			"name":"v14_gold",
			"uri":"textures/v14_gold.png"
		},
		{
			"mimeType":"image/png",
			"name":"v14_copper",
			"uri":"textures/v14_copper.png"
		}
	],
	"accessors":[
		{
			"bufferView":0,
			"componentType":5126,
			"count":3072,
			"max":[
				9.90999984741211,
				8.209999084472656,
				0.29999998211860657
			],
			"min":[
				-9.910000801086426,
				-0.5099999904632568,
				-0.05999999865889549
			],
			"type":"VEC3"
		},
		{
			"bufferView":1,
			"componentType":5126,
			"count":3072,
			"type":"VEC3"
		},
		{
			"bufferView":2,
			"componentType":5126,
			"count":3072,
			"type":"VEC2"
		},
		{
			"bufferView":3,
			"componentType":5123,
			"count":4512,
			"type":"SCALAR"
		},
		{
			"bufferView":4,
			"componentType":5126,
			"count":1536,
			"max":[
				9.795000076293945,
				7.970000267028809,
				0.23999999463558197
			],
			"min":[
				-9.795000076293945,
				-0.5699999332427979,
				0
			],
			"type":"VEC3"
		},
		{
			"bufferView":5,
			"componentType":5126,
			"count":1536,
			"type":"VEC3"
		},
		{
			"bufferView":6,
			"componentType":5126,
			"count":1536,
			"type":"VEC2"
		},
		{
			"bufferView":7,
			"componentType":5123,
			"count":2256,
			"type":"SCALAR"
		},
		{
			"bufferView":8,
			"componentType":5126,
			"count":1536,
			"max":[
				9.725000381469727,
				7.774999618530273,
				0.07499999552965164
			],
			"min":[
				-9.725000381469727,
				-0.6749999523162842,
				-0.2750000059604645
			],
			"type":"VEC3"
		},
		{
			"bufferView":9,
			"componentType":5126,
			"count":1536,
			"type":"VEC3"
		},
		{
			"bufferView":10,
			"componentType":5126,
			"count":1536,
			"type":"VEC2"
		},
		{
			"bufferView":11,
			"componentType":5123,
			"count":2256,
			"type":"SCALAR"
		}
	],
	"bufferViews":[
		{
			"buffer":0,
			"byteLength":36864,
			"byteOffset":0,
			"target":34962
		},
		{
			"buffer":0,
			"byteLength":36864,
			"byteOffset":36864,
			"target":34962
		},
		{
			"buffer":0,
			"byteLength":24576,
			"byteOffset":73728,
			"target":34962
		},
		{
			"buffer":0,
			"byteLength":9024,
			"byteOffset":98304,
			"target":34963
		},
		{
			"buffer":0,
			"byteLength":18432,
			"byteOffset":107328,
			"target":34962
		},
		{
			"buffer":0,
			"byteLength":18432,
			"byteOffset":125760,
			"target":34962
		},
		{
			"buffer":0,
			"byteLength":12288,
			"byteOffset":144192,
			"target":34962
		},
		{
			"buffer":0,
			"byteLength":4512,
			"byteOffset":156480,
			"target":34963
		},
		{
			"buffer":0,
			"byteLength":18432,
			"byteOffset":160992,
			"target":34962
		},
		{
			"buffer":0,
			"byteLength":18432,
			"byteOffset":179424,
			"target":34962
		},
		{
			"buffer":0,
			"byteLength":12288,
			"byteOffset":197856,
			"target":34962
		},
		{
			"buffer":0,
			"byteLength":4512,
			"byteOffset":210144,
			"target":34963
		}
	],
	"samplers":[
		{
			"magFilter":9729,
			"minFilter":9987
		}
	],
	"buffers":[
		{
			"byteLength":214656,
			"uri":"painting_frame.bin"
		}
	]
}
