{
	"asset":{
		"generator":"Khronos glTF Blender I/O v5.2.39",
		"version":"2.0"
	},
	"scene":0,
	"scenes":[
		{
			"name":"JUNCTION - The Connected Gallery.001",
			"nodes":[
				0
			]
		}
	],
	"nodes":[
		{
			"mesh":0,
			"name":"V14_painted_path_1"
		}
	],
	"materials":[
		{
			"doubleSided":true,
			"name":"V14_chalk",
			"pbrMetallicRoughness":{
				"baseColorTexture":{
					"index":0,
					"texCoord":2
				},
				"metallicFactor":0,
				"roughnessFactor":0.6200000047683716
			}
		},
		{
			"doubleSided":true,
			"name":"V14_ink",
			"pbrMetallicRoughness":{
				"baseColorTexture":{
					"index":1,
					"texCoord":2
				},
				"metallicFactor":0,
				"roughnessFactor":0.6200000047683716
			}
		},
		{
			"doubleSided":true,
			"name":"V14_gold",
			"pbrMetallicRoughness":{
				"baseColorTexture":{
					"index":2,
					"texCoord":2
				},
				"metallicFactor":0.3499999940395355,
				"roughnessFactor":0.6200000047683716
			}
		},
		{
			"doubleSided":true,
			"name":"V14_copper",
			"pbrMetallicRoughness":{
				"baseColorTexture":{
					"index":3,
					"texCoord":2
				},
				"metallicFactor":0.4000000059604645,
				"roughnessFactor":0.6200000047683716
			}
		}
	],
	"meshes":[
		{
			"name":"Painted ramp.001",
			"primitives":[
				{
					"attributes":{
						"POSITION":0,
						"NORMAL":1,
						"TEXCOORD_0":2,
						"TEXCOORD_1":3,
						"TEXCOORD_2":4
					},
					"indices":5,
					"material":0
				},
				{
					"attributes":{
						"POSITION":6,
						"NORMAL":7,
						"TEXCOORD_0":8,
						"TEXCOORD_1":9,
						"TEXCOORD_2":10
					},
					"indices":11,
					"material":1
				},
				{
					"attributes":{
						"POSITION":12,
						"NORMAL":13,
						"TEXCOORD_0":14,
						"TEXCOORD_1":15,
						"TEXCOORD_2":16
					},
					"indices":17,
					"material":2
				},
				{
					"attributes":{
						"POSITION":18,
						"NORMAL":19,
						"TEXCOORD_0":20,
						"TEXCOORD_1":21,
						"TEXCOORD_2":22
					},
					"indices":17,
					"material":3
				}
			]
		}
	],
	"textures":[
		{
			"sampler":0,
			"source":0
		},
		{
			"sampler":0,
			"source":1
		},
		{
			"sampler":0,
			"source":2
		},
		{
			"sampler":0,
			"source":3
		}
	],
	"images":[
		{
			"mimeType":"image/png",
			"name":"v14_chalk",
			"uri":"textures/v14_chalk.png"
		},
		{
			"mimeType":"image/png",
			"name":"v14_ink",
			"uri":"textures/v14_ink.png"
		},
		{
			"mimeType":"image/png",
			"name":"v14_gold",
			"uri":"textures/v14_gold.png"
		},
		{
			"mimeType":"image/png",
			"name":"v14_copper",
			"uri":"textures/v14_copper.png"
		}
	],
	"accessors":[
		{
			"bufferView":0,
			"componentType":5126,
			"count":384,
			"max":[
				5.333333492279053,
				1.062785029411316,
				0.800000011920929
			],
			"min":[
				0,
				-0.3461182117462158,
				-0.800000011920929
			],
			"type":"VEC3"
		},
		{
			"bufferView":1,
			"componentType":5126,
			"count":384,
			"type":"VEC3"
		},
		{
			"bufferView":2,
			"componentType":5126,
			"count":384,
			"type":"VEC2"
		},
		{
			"bufferView":3,
			"componentType":5126,
			"count":384,
			"type":"VEC2"
		},
		{
			"bufferView":4,
			"componentType":5126,
			"count":384,
			"type":"VEC2"
		},
		{
			"bufferView":5,
			"componentType":5123,
			"count":564,
			"type":"SCALAR"
		},
		{
			"bufferView":6,
			"componentType":5126,
			"count":3072,
			"max":[
				5.017499923706055,
				1.0265001058578491,
				0.73499995470047
			],
			"min":[
				0.31583333015441895,
				0.06816666573286057,
				-0.8149999976158142
			],
			"type":"VEC3"
		},
		{
			"bufferView":7,
			"componentType":5126,
			"count":3072,
			"type":"VEC3"
		},
		{
			"bufferView":8,
			"componentType":5126,
			"count":3072,
			"type":"VEC2"
		},
		{
			"bufferView":9,
			"componentType":5126,
			"count":3072,
			"type":"VEC2"
		},
		{
			"bufferView":10,
			"componentType":5126,
			"count":3072,
			"type":"VEC2"
		},
		{
			"bufferView":11,
			"componentType":5123,
			"count":4512,
			"type":"SCALAR"
		},
		{
			"bufferView":12,
			"componentType":5126,
			"count":22,
			"max":[
				5.3398613929748535,
				1.144307255744934,
				-0.7749999761581421
			],
			"min":[
				-0.006528115831315517,
				0.012359432876110077,
				-0.8450000286102295
			],
			"type":"VEC3"
		},
		{
			"bufferView":13,
			"componentType":5126,
			"count":22,
			"type":"VEC3"
		},
		{
			"bufferView":14,
			"componentType":5126,
			"count":22,
			"type":"VEC2"
		},
		{
			"bufferView":15,
			"componentType":5126,
			"count":22,
			"type":"VEC2"
		},
		{
			"bufferView":16,
			"componentType":5126,
			"count":22,
			"type":"VEC2"
		},
		{
			"bufferView":17,
			"componentType":5123,
			"count":60,
			"type":"SCALAR"
		},
		{
			"bufferView":18,
			"componentType":5126,
			"count":22,
			"max":[
				5.353850364685059,
				0.719251275062561,
				0.36000001430511475
			],
			"min":[
				-0.020516935735940933,
				-0.5525846481323242,
				0.14000000059604645
			],
			"type":"VEC3"
		},
		{
			"bufferView":19,
			"componentType":5126,
			"count":22,
			"type":"VEC3"
		},
		{
			"bufferView":20,
			"componentType":5126,
			"count":22,
			"type":"VEC2"
		},
		{
			"bufferView":21,
			"componentType":5126,
			"count":22,
			"type":"VEC2"
		},
		{
			"bufferView":22,
			"componentType":5126,
			"count":22,
			"type":"VEC2"
		}
	],
	"bufferViews":[
		{
			"buffer":0,
			"byteLength":4608,
			"byteOffset":0,
			"target":34962
		},
		{
			"buffer":0,
			"byteLength":4608,
			"byteOffset":4608,
			"target":34962
		},
		{
			"buffer":0,
			"byteLength":3072,
			"byteOffset":9216,
			"target":34962
		},
		{
			"buffer":0,
			"byteLength":3072,
			"byteOffset":12288,
			"target":34962
		},
		{
			"buffer":0,
			"byteLength":3072,
			"byteOffset":15360,
			"target":34962
		},
		{
			"buffer":0,
			"byteLength":1128,
			"byteOffset":18432,
			"target":34963
		},
		{
			"buffer":0,
			"byteLength":36864,
			"byteOffset":19560,
			"target":34962
		},
		{
			"buffer":0,
			"byteLength":36864,
			"byteOffset":56424,
			"target":34962
		},
		{
			"buffer":0,
			"byteLength":24576,
			"byteOffset":93288,
			"target":34962
		},
		{
			"buffer":0,
			"byteLength":24576,
			"byteOffset":117864,
			"target":34962
		},
		{
			"buffer":0,
			"byteLength":24576,
			"byteOffset":142440,
			"target":34962
		},
		{
			"buffer":0,
			"byteLength":9024,
			"byteOffset":167016,
			"target":34963
		},
		{
			"buffer":0,
			"byteLength":264,
			"byteOffset":176040,
			"target":34962
		},
		{
			"buffer":0,
			"byteLength":264,
			"byteOffset":176304,
			"target":34962
		},
		{
			"buffer":0,
			"byteLength":176,
			"byteOffset":176568,
			"target":34962
		},
		{
			"buffer":0,
			"byteLength":176,
			"byteOffset":176744,
			"target":34962
		},
		{
			"buffer":0,
			"byteLength":176,
			"byteOffset":176920,
			"target":34962
		},
		{
			"buffer":0,
			"byteLength":120,
			"byteOffset":177096,
			"target":34963
		},
		{
			"buffer":0,
			"byteLength":264,
			"byteOffset":177216,
			"target":34962
		},
		{
			"buffer":0,
			"byteLength":264,
			"byteOffset":177480,
			"target":34962
		},
		{
			"buffer":0,
			"byteLength":176,
			"byteOffset":177744,
			"target":34962
		},
		{
			"buffer":0,
			"byteLength":176,
			"byteOffset":177920,
			"target":34962
		},
		{
			"buffer":0,
			"byteLength":176,
			"byteOffset":178096,
			"target":34962
		}
	],
	"samplers":[
		{
			"magFilter":9729,
			"minFilter":9987
		}
	],
	"buffers":[
		{
			"byteLength":178272,
			"uri":"painted_path_1.bin"
		}
	]
}
