{
	"asset":{
		"generator":"Khronos glTF Blender I/O v5.2.39",
		"version":"2.0"
	},
	"scene":0,
	"scenes":[
		{
			"name":"JUNCTION - The Connected Gallery.001",
			"nodes":[
				0
			]
		}
	],
	"nodes":[
		{
			"mesh":0,
			"name":"V14_paper_walker"
		}
	],
	"materials":[
		{
			"doubleSided":true,
			"name":"V14_gold",
			"pbrMetallicRoughness":{
				"baseColorTexture":{
					"index":0,
					"texCoord":1
				},
				"metallicFactor":0.3499999940395355,
				"roughnessFactor":0.6200000047683716
			}
		},
		{
			"doubleSided":true,
			"name":"V14_chalk",
			"pbrMetallicRoughness":{
				"baseColorTexture":{
					"index":1,
					"texCoord":1
				},
				"metallicFactor":0,
				"roughnessFactor":0.6200000047683716
			}
		}
	],
	"meshes":[
		{
			"name":"Walker coat",
			"primitives":[
				{
					"attributes":{
						"POSITION":0,
						"NORMAL":1,
						"TEXCOORD_0":2,
						"TEXCOORD_1":3
					},
					"indices":4,
					"material":0
				},
				{
					"attributes":{
						"POSITION":5,
						"NORMAL":6,
						"TEXCOORD_0":7,
						"TEXCOORD_1":8
					},
					"indices":9,
					"material":1
				}
			]
		}
	],
	"textures":[
		{
			"sampler":0,
			"source":0
		},
		{
			"sampler":0,
			"source":1
		}
	],
	"images":[
		{
			"mimeType":"image/png",
			"name":"v14_gold",
			"uri":"textures/v14_gold.png"
		},
		{
			"mimeType":"image/png",
			"name":"v14_chalk",
			"uri":"textures/v14_chalk.png"
		}
	],
	"accessors":[
		{
			"bufferView":0,
			"componentType":5126,
			"count":1560,
			"max":[
				0.604856550693512,
				1.559999942779541,
				0.07999999821186066
			],
			"min":[
				-0.604856550693512,
				0.05000000074505806,
				-0.07999999821186066
			],
			"type":"VEC3"
		},
		{
			"bufferView":1,
			"componentType":5126,
			"count":1560,
			"type":"VEC3"
		},
		{
			"bufferView":2,
			"componentType":5126,
			"count":1560,
			"type":"VEC2"
		},
		{
			"bufferView":3,
			"componentType":5126,
			"count":1560,
			"type":"VEC2"
		},
		{
			"bufferView":4,
			"componentType":5123,
			"count":2340,
			"type":"SCALAR"
		},
		{
			"bufferView":5,
			"componentType":5126,
			"count":1104,
			"max":[
				0.22999998927116394,
				2.0199999809265137,
				0.22999998927116394
			],
			"min":[
				-0.22999998927116394,
				1.559999942779541,
				-0.22999998927116394
			],
			"type":"VEC3"
		},
		{
			"bufferView":6,
			"componentType":5126,
			"count":1104,
			"type":"VEC3"
		},
		{
			"bufferView":7,
			"componentType":5126,
			"count":1104,
			"type":"VEC2"
		},
		{
			"bufferView":8,
			"componentType":5126,
			"count":1104,
			"type":"VEC2"
		},
		{
			"bufferView":9,
			"componentType":5123,
			"count":1584,
			"type":"SCALAR"
		}
	],
	"bufferViews":[
		{
			"buffer":0,
			"byteLength":18720,
			"byteOffset":0,
			"target":34962
		},
		{
			"buffer":0,
			"byteLength":18720,
			"byteOffset":18720,
			"target":34962
		},
		{
			"buffer":0,
			"byteLength":12480,
			"byteOffset":37440,
			"target":34962
		},
		{
			"buffer":0,
			"byteLength":12480,
			"byteOffset":49920,
			"target":34962
		},
		{
			"buffer":0,
			"byteLength":4680,
			"byteOffset":62400,
			"target":34963
		},
		{
			"buffer":0,
			"byteLength":13248,
			"byteOffset":67080,
			"target":34962
		},
		{
			"buffer":0,
			"byteLength":13248,
			"byteOffset":80328,
			"target":34962
		},
		{
			"buffer":0,
			"byteLength":8832,
			"byteOffset":93576,
			"target":34962
		},
		{
			"buffer":0,
			"byteLength":8832,
			"byteOffset":102408,
			"target":34962
		},
		{
			"buffer":0,
			"byteLength":3168,
			"byteOffset":111240,
			"target":34963
		}
	],
	"samplers":[
		{
			"magFilter":9729,
			"minFilter":9987
		}
	],
	"buffers":[
		{
			"byteLength":114408,
			"uri":"paper_walker.bin"
		}
	]
}
