{
	"asset":{
		"generator":"Khronos glTF Blender I/O v5.2.39",
		"version":"2.0"
	},
	"scene":0,
	"scenes":[
		{
			"name":"JUNCTION - The Connected Gallery.001",
			"nodes":[
				0
			]
		}
	],
	"nodes":[
		{
			"mesh":0,
			"name":"V14_seam_right"
		}
	],
	"materials":[
		{
			"doubleSided":true,
			"name":"V14_ink",
			"pbrMetallicRoughness":{
				"baseColorTexture":{
					"index":0,
					"texCoord":2
				},
				"metallicFactor":0,
				"roughnessFactor":0.6200000047683716
			}
		},
		{
			"doubleSided":true,
			"name":"V14_gold",
			"pbrMetallicRoughness":{
				"baseColorTexture":{
					"index":1,
					"texCoord":2
				},
				"metallicFactor":0.3499999940395355,
				"roughnessFactor":0.6200000047683716
			}
		},
		{
			"doubleSided":true,
			"name":"V14_copper",
			"pbrMetallicRoughness":{
				"baseColorTexture":{
					"index":2,
					"texCoord":2
				},
				"metallicFactor":0.4000000059604645,
				"roughnessFactor":0.6200000047683716
			}
		}
	],
	"meshes":[
		{
			"name":"seam_right",
			"primitives":[
				{
					"attributes":{
						"POSITION":0,
						"NORMAL":1,
						"TEXCOORD_0":2,
						"TEXCOORD_1":3,
						"TEXCOORD_2":4
					},
					"indices":5,
					"material":0
				},
				{
					"attributes":{
						"POSITION":6,
						"NORMAL":7,
						"TEXCOORD_0":8,
						"TEXCOORD_1":9,
						"TEXCOORD_2":10
					},
					"indices":11,
					"material":1
				},
				{
					"attributes":{
						"POSITION":12,
						"NORMAL":13,
						"TEXCOORD_0":14,
						"TEXCOORD_1":15,
						"TEXCOORD_2":16
					},
					"indices":17,
					"material":2
				}
			]
		}
	],
	"textures":[
		{
			"sampler":0,
			"source":0
		},
		{
			"sampler":0,
			"source":1
		},
		{
			"sampler":0,
			"source":2
		}
	],
	"images":[
		{
			"mimeType":"image/png",
			"name":"v14_ink",
			"uri":"textures/v14_ink.png"
		},
		{
			"mimeType":"image/png",
			"name":"v14_gold",
			"uri":"textures/v14_gold.png"
		},
		{
			"mimeType":"image/png",
			"name":"v14_copper",
			"uri":"textures/v14_copper.png"
		}
	],
	"accessors":[
		{
			"bufferView":0,
			"componentType":5126,
			"count":1204,
			"max":[
				10,
				8,
				0.32499998807907104
			],
			"min":[
				7.421297985727488e-19,
				0,
				-0.32499998807907104
			],
			"type":"VEC3"
		},
		{
			"bufferView":1,
			"componentType":5126,
			"count":1204,
			"type":"VEC3"
		},
		{
			"bufferView":2,
			"componentType":5126,
			"count":1204,
			"type":"VEC2"
		},
		{
			"bufferView":3,
			"componentType":5126,
			"count":1204,
			"type":"VEC2"
		},
		{
			"bufferView":4,
			"componentType":5126,
			"count":1204,
			"type":"VEC2"
		},
		{
			"bufferView":5,
			"componentType":5123,
			"count":1860,
			"type":"SCALAR"
		},
		{
			"bufferView":6,
			"componentType":5126,
			"count":286,
			"max":[
				1.7049999237060547,
				4.204970836639404,
				-0.30769190192222595
			],
			"min":[
				-0.0017996206879615784,
				-2.9036831235178638e-18,
				-0.4123081564903259
			],
			"type":"VEC3"
		},
		{
			"bufferView":7,
			"componentType":5126,
			"count":286,
			"type":"VEC3"
		},
		{
			"bufferView":8,
			"componentType":5126,
			"count":286,
			"type":"VEC2"
		},
		{
			"bufferView":9,
			"componentType":5126,
			"count":286,
			"type":"VEC2"
		},
		{
			"bufferView":10,
			"componentType":5126,
			"count":286,
			"type":"VEC2"
		},
		{
			"bufferView":11,
			"componentType":5123,
			"count":1500,
			"type":"SCALAR"
		},
		{
			"bufferView":12,
			"componentType":5126,
			"count":2688,
			"max":[
				9.012999534606934,
				7.75,
				-0.3425000011920929
			],
			"min":[
				2.986999988555908,
				0.25,
				-0.3775000274181366
			],
			"type":"VEC3"
		},
		{
			"bufferView":13,
			"componentType":5126,
			"count":2688,
			"type":"VEC3"
		},
		{
			"bufferView":14,
			"componentType":5126,
			"count":2688,
			"type":"VEC2"
		},
		{
			"bufferView":15,
			"componentType":5126,
			"count":2688,
			"type":"VEC2"
		},
		{
			"bufferView":16,
			"componentType":5126,
			"count":2688,
			"type":"VEC2"
		},
		{
			"bufferView":17,
			"componentType":5123,
			"count":3948,
			"type":"SCALAR"
		}
	],
	"bufferViews":[
		{
			"buffer":0,
			"byteLength":14448,
			"byteOffset":0,
			"target":34962
		},
		{
			"buffer":0,
			"byteLength":14448,
			"byteOffset":14448,
			"target":34962
		},
		{
			"buffer":0,
			"byteLength":9632,
			"byteOffset":28896,
			"target":34962
		},
		{
			"buffer":0,
			"byteLength":9632,
			"byteOffset":38528,
			"target":34962
		},
		{
			"buffer":0,
			"byteLength":9632,
			"byteOffset":48160,
			"target":34962
		},
		{
			"buffer":0,
			"byteLength":3720,
			"byteOffset":57792,
			"target":34963
		},
		{
			"buffer":0,
			"byteLength":3432,
			"byteOffset":61512,
			"target":34962
		},
		{
			"buffer":0,
			"byteLength":3432,
			"byteOffset":64944,
			"target":34962
		},
		{
			"buffer":0,
			"byteLength":2288,
			"byteOffset":68376,
			"target":34962
		},
		{
			"buffer":0,
			"byteLength":2288,
			"byteOffset":70664,
			"target":34962
		},
		{
			"buffer":0,
			"byteLength":2288,
			"byteOffset":72952,
			"target":34962
		},
		{
			"buffer":0,
			"byteLength":3000,
			"byteOffset":75240,
			"target":34963
		},
		{
			"buffer":0,
			"byteLength":32256,
			"byteOffset":78240,
			"target":34962
		},
		{
			"buffer":0,
			"byteLength":32256,
			"byteOffset":110496,
			"target":34962
		},
		{
			"buffer":0,
			"byteLength":21504,
			"byteOffset":142752,
			"target":34962
		},
		{
			"buffer":0,
			"byteLength":21504,
			"byteOffset":164256,
			"target":34962
		},
		{
			"buffer":0,
			"byteLength":21504,
			"byteOffset":185760,
			"target":34962
		},
		{
			"buffer":0,
			"byteLength":7896,
			"byteOffset":207264,
			"target":34963
		}
	],
	"samplers":[
		{
			"magFilter":9729,
			"minFilter":9987
		}
	],
	"buffers":[
		{
			"byteLength":215160,
			"uri":"seam_right.bin"
		}
	]
}
