{
	"asset":{
		"generator":"Khronos glTF Blender I/O v5.2.39",
		"version":"2.0"
	},
	"scene":0,
	"scenes":[
		{
			"name":"JUNCTION - The Connected Gallery.001",
			"nodes":[
				0
			]
		}
	],
	"nodes":[
		{
			"mesh":0,
			"name":"V14_seam_left"
		}
	],
	"materials":[
		{
			"doubleSided":true,
			"name":"V14_chalk",
			"pbrMetallicRoughness":{
				"baseColorTexture":{
					"index":0,
					"texCoord":1
				},
				"metallicFactor":0,
				"roughnessFactor":0.6200000047683716
			}
		},
		{
			"doubleSided":true,
			"name":"V14_gold",
			"pbrMetallicRoughness":{
				"baseColorTexture":{
					"index":1,
					"texCoord":1
				},
				"metallicFactor":0.3499999940395355,
				"roughnessFactor":0.6200000047683716
			}
		},
		{
			"doubleSided":true,
			"name":"V14_copper",
			"pbrMetallicRoughness":{
				"baseColorTexture":{
					"index":2,
					"texCoord":1
				},
				"metallicFactor":0.4000000059604645,
				"roughnessFactor":0.6200000047683716
			}
		}
	],
	"meshes":[
		{
			"name":"seam_left",
			"primitives":[
				{
					"attributes":{
						"POSITION":0,
						"NORMAL":1,
						"TEXCOORD_0":2,
						"TEXCOORD_1":3
					},
					"indices":4,
					"material":0
				},
				{
					"attributes":{
						"POSITION":5,
						"NORMAL":6,
						"TEXCOORD_0":7,
						"TEXCOORD_1":8
					},
					"indices":9,
					"material":1
				},
				{
					"attributes":{
						"POSITION":10,
						"NORMAL":11,
						"TEXCOORD_0":12,
						"TEXCOORD_1":13
					},
					"indices":14,
					"material":2
				}
			]
		}
	],
	"textures":[
		{
			"sampler":0,
			"source":0
		},
		{
			"sampler":0,
			"source":1
		},
		{
			"sampler":0,
			"source":2
		}
	],
	"images":[
		{
			"mimeType":"image/png",
			"name":"v14_chalk",
			"uri":"textures/v14_chalk.png"
		},
		{
			"mimeType":"image/png",
			"name":"v14_gold",
			"uri":"textures/v14_gold.png"
		},
		{
			"mimeType":"image/png",
			"name":"v14_copper",
			"uri":"textures/v14_copper.png"
		}
	],
	"accessors":[
		{
			"bufferView":0,
			"componentType":5126,
			"count":1202,
			"max":[
				-7.421301604642668e-19,
				8,
				0.32499998807907104
			],
			"min":[
				-10,
				0,
				-0.32499998807907104
			],
			"type":"VEC3"
		},
		{
			"bufferView":1,
			"componentType":5126,
			"count":1202,
			"type":"VEC3"
		},
		{
			"bufferView":2,
			"componentType":5126,
			"count":1202,
			"type":"VEC2"
		},
		{
			"bufferView":3,
			"componentType":5126,
			"count":1202,
			"type":"VEC2"
		},
		{
			"bufferView":4,
			"componentType":5123,
			"count":1860,
			"type":"SCALAR"
		},
		{
			"bufferView":5,
			"componentType":5126,
			"count":286,
			"max":[
				0.0017996206879615784,
				4.204970836639404,
				-0.30769190192222595
			],
			"min":[
				-1.7049999237060547,
				-2.90368353710817e-18,
				-0.4123081564903259
			],
			"type":"VEC3"
		},
		{
			"bufferView":6,
			"componentType":5126,
			"count":286,
			"type":"VEC3"
		},
		{
			"bufferView":7,
			"componentType":5126,
			"count":286,
			"type":"VEC2"
		},
		{
			"bufferView":8,
			"componentType":5126,
			"count":286,
			"type":"VEC2"
		},
		{
			"bufferView":9,
			"componentType":5123,
			"count":1500,
			"type":"SCALAR"
		},
		{
			"bufferView":10,
			"componentType":5126,
			"count":2688,
			"max":[
				-2.986999988555908,
				7.75,
				-0.3425000011920929
			],
			"min":[
				-9.012999534606934,
				0.25,
				-0.3775000274181366
			],
			"type":"VEC3"
		},
		{
			"bufferView":11,
			"componentType":5126,
			"count":2688,
			"type":"VEC3"
		},
		{
			"bufferView":12,
			"componentType":5126,
			"count":2688,
			"type":"VEC2"
		},
		{
			"bufferView":13,
			"componentType":5126,
			"count":2688,
			"type":"VEC2"
		},
		{
			"bufferView":14,
			"componentType":5123,
			"count":3948,
			"type":"SCALAR"
		}
	],
	"bufferViews":[
		{
			"buffer":0,
			"byteLength":14424,
			"byteOffset":0,
			"target":34962
		},
		{
			"buffer":0,
			"byteLength":14424,
			"byteOffset":14424,
			"target":34962
		},
		{
			"buffer":0,
			"byteLength":9616,
			"byteOffset":28848,
			"target":34962
		},
		{
			"buffer":0,
			"byteLength":9616,
			"byteOffset":38464,
			"target":34962
		},
		{
			"buffer":0,
			"byteLength":3720,
			"byteOffset":48080,
			"target":34963
		},
		{
			"buffer":0,
			"byteLength":3432,
			"byteOffset":51800,
			"target":34962
		},
		{
			"buffer":0,
			"byteLength":3432,
			"byteOffset":55232,
			"target":34962
		},
		{
			"buffer":0,
			"byteLength":2288,
			"byteOffset":58664,
			"target":34962
		},
		{
			"buffer":0,
			"byteLength":2288,
			"byteOffset":60952,
			"target":34962
		},
		{
			"buffer":0,
			"byteLength":3000,
			"byteOffset":63240,
			"target":34963
		},
		{
			"buffer":0,
			"byteLength":32256,
			"byteOffset":66240,
			"target":34962
		},
		{
			"buffer":0,
			"byteLength":32256,
			"byteOffset":98496,
			"target":34962
		},
		{
			"buffer":0,
			"byteLength":21504,
			"byteOffset":130752,
			"target":34962
		},
		{
			"buffer":0,
			"byteLength":21504,
			"byteOffset":152256,
			"target":34962
		},
		{
			"buffer":0,
			"byteLength":7896,
			"byteOffset":173760,
			"target":34963
		}
	],
	"samplers":[
		{
			"magFilter":9729,
			"minFilter":9987
		}
	],
	"buffers":[
		{
			"byteLength":181656,
			"uri":"seam_left.bin"
		}
	]
}
