{
	"asset":{
		"generator":"Khronos glTF Blender I/O v5.2.39",
		"version":"2.0"
	},
	"scene":0,
	"scenes":[
		{
			"name":"JUNCTION - The Connected Gallery.001",
			"nodes":[
				0
			]
		}
	],
	"nodes":[
		{
			"mesh":0,
			"name":"V14_sight_ring"
		}
	],
	"materials":[
		{
			"doubleSided":true,
			"name":"V14_gold",
			"pbrMetallicRoughness":{
				"baseColorTexture":{
					"index":0
				},
				"metallicFactor":0.3499999940395355,
				"roughnessFactor":0.6200000047683716
			}
		}
	],
	"meshes":[
		{
			"name":"Sight arc",
			"primitives":[
				{
					"attributes":{
						"POSITION":0,
						"NORMAL":1,
						"TEXCOORD_0":2,
						"TEXCOORD_1":3
					},
					"indices":4,
					"material":0
				}
			]
		}
	],
	"textures":[
		{
			"sampler":0,
			"source":0
		}
	],
	"images":[
		{
			"mimeType":"image/png",
			"name":"v14_gold",
			"uri":"textures/v14_gold.png"
		}
	],
	"accessors":[
		{
			"bufferView":0,
			"componentType":5126,
			"count":1550,
			"max":[
				0.8749828338623047,
				0.0535316988825798,
				0.8749250173568726
			],
			"min":[
				-0.8749828338623047,
				-0.003531700000166893,
				-0.8749250769615173
			],
			"type":"VEC3"
		},
		{
			"bufferView":1,
			"componentType":5126,
			"count":1550,
			"type":"VEC3"
		},
		{
			"bufferView":2,
			"componentType":5126,
			"count":1550,
			"type":"VEC2"
		},
		{
			"bufferView":3,
			"componentType":5126,
			"count":1550,
			"type":"VEC2"
		},
		{
			"bufferView":4,
			"componentType":5123,
			"count":8760,
			"type":"SCALAR"
		}
	],
	"bufferViews":[
		{
			"buffer":0,
			"byteLength":18600,
			"byteOffset":0,
			"target":34962
		},
		{
			"buffer":0,
			"byteLength":18600,
			"byteOffset":18600,
			"target":34962
		},
		{
			"buffer":0,
			"byteLength":12400,
			"byteOffset":37200,
			"target":34962
		},
		{
			"buffer":0,
			"byteLength":12400,
			"byteOffset":49600,
			"target":34962
		},
		{
			"buffer":0,
			"byteLength":17520,
			"byteOffset":62000,
			"target":34963
		}
	],
	"samplers":[
		{
			"magFilter":9729,
			"minFilter":9987
		}
	],
	"buffers":[
		{
			"byteLength":79520,
			"uri":"sight_ring.bin"
		}
	]
}
