{
	"asset":{
		"generator":"Khronos glTF Blender I/O v5.2.39",
		"version":"2.0"
	},
	"scene":0,
	"scenes":[
		{
			"name":"JUNCTION - The Connected Gallery.001",
			"nodes":[
				0
			]
		}
	],
	"nodes":[
		{
			"mesh":0,
			"name":"V14_vault_rib"
		}
	],
	"materials":[
		{
			"doubleSided":true,
			"name":"V14_ink",
			"pbrMetallicRoughness":{
				"baseColorTexture":{
					"index":0
				},
				"metallicFactor":0,
				"roughnessFactor":0.6200000047683716
			}
		},
		{
			"doubleSided":true,
			"name":"V14_chalk",
			"pbrMetallicRoughness":{
				"baseColorTexture":{
					"index":1
				},
				"metallicFactor":0,
				"roughnessFactor":0.6200000047683716
			}
		}
	],
	"meshes":[
		{
			"name":"\u7acb\u65b9\u4f53.088",
			"primitives":[
				{
					"attributes":{
						"POSITION":0,
						"NORMAL":1,
						"TEXCOORD_0":2,
						"TEXCOORD_1":3
					},
					"indices":4,
					"material":0
				},
				{
					"attributes":{
						"POSITION":5,
						"NORMAL":6,
						"TEXCOORD_0":7,
						"TEXCOORD_1":8
					},
					"indices":9,
					"material":1
				}
			]
		}
	],
	"textures":[
		{
			"sampler":0,
			"source":0
		},
		{
			"sampler":0,
			"source":1
		}
	],
	"images":[
		{
			"mimeType":"image/png",
			"name":"v14_ink",
			"uri":"textures/v14_ink.png"
		},
		{
			"mimeType":"image/png",
			"name":"v14_chalk",
			"uri":"textures/v14_chalk.png"
		}
	],
	"accessors":[
		{
			"bufferView":0,
			"componentType":5126,
			"count":768,
			"max":[
				10.225000381469727,
				9,
				0.25
			],
			"min":[
				-10.225000381469727,
				0,
				-0.25
			],
			"type":"VEC3"
		},
		{
			"bufferView":1,
			"componentType":5126,
			"count":768,
			"type":"VEC3"
		},
		{
			"bufferView":2,
			"componentType":5126,
			"count":768,
			"type":"VEC2"
		},
		{
			"bufferView":3,
			"componentType":5126,
			"count":768,
			"type":"VEC2"
		},
		{
			"bufferView":4,
			"componentType":5123,
			"count":1128,
			"type":"SCALAR"
		},
		{
			"bufferView":5,
			"componentType":5126,
			"count":1670,
			"max":[
				10.450000762939453,
				12.21873950958252,
				0.44999998807907104
			],
			"min":[
				-10.449999809265137,
				0,
				-0.44999998807907104
			],
			"type":"VEC3"
		},
		{
			"bufferView":6,
			"componentType":5126,
			"count":1670,
			"type":"VEC3"
		},
		{
			"bufferView":7,
			"componentType":5126,
			"count":1670,
			"type":"VEC2"
		},
		{
			"bufferView":8,
			"componentType":5126,
			"count":1670,
			"type":"VEC2"
		},
		{
			"bufferView":9,
			"componentType":5123,
			"count":5928,
			"type":"SCALAR"
		}
	],
	"bufferViews":[
		{
			"buffer":0,
			"byteLength":9216,
			"byteOffset":0,
			"target":34962
		},
		{
			"buffer":0,
			"byteLength":9216,
			"byteOffset":9216,
			"target":34962
		},
		{
			"buffer":0,
			"byteLength":6144,
			"byteOffset":18432,
			"target":34962
		},
		{
			"buffer":0,
			"byteLength":6144,
			"byteOffset":24576,
			"target":34962
		},
		{
			"buffer":0,
			"byteLength":2256,
			"byteOffset":30720,
			"target":34963
		},
		{
			"buffer":0,
			"byteLength":20040,
			"byteOffset":32976,
			"target":34962
		},
		{
			"buffer":0,
			"byteLength":20040,
			"byteOffset":53016,
			"target":34962
		},
		{
			"buffer":0,
			"byteLength":13360,
			"byteOffset":73056,
			"target":34962
		},
		{
			"buffer":0,
			"byteLength":13360,
			"byteOffset":86416,
			"target":34962
		},
		{
			"buffer":0,
			"byteLength":11856,
			"byteOffset":99776,
			"target":34963
		}
	],
	"samplers":[
		{
			"magFilter":9729,
			"minFilter":9987
		}
	],
	"buffers":[
		{
			"byteLength":111632,
			"uri":"vault_rib.bin"
		}
	]
}
