{
	"asset":{
		"generator":"Khronos glTF Blender I/O v5.2.39",
		"version":"2.0"
	},
	"scene":0,
	"scenes":[
		{
			"name":"Scene",
			"nodes":[
				0
			]
		}
	],
	"nodes":[
		{
			"mesh":0,
			"name":"jx_ball"
		}
	],
	"materials":[
		{
			"doubleSided":true,
			"name":"jx_metal",
			"pbrMetallicRoughness":{
				"baseColorTexture":{
					"index":0
				},
				"metallicFactor":0.6000000238418579,
				"roughnessFactor":0.44999998807907104
			}
		}
	],
	"meshes":[
		{
			"name":"jx_ball",
			"primitives":[
				{
					"attributes":{
						"POSITION":0,
						"NORMAL":1,
						"TEXCOORD_0":2
					},
					"indices":3,
					"material":0
				}
			]
		}
	],
	"textures":[
		{
			"sampler":0,
			"source":0
		}
	],
	"images":[
		{
			"mimeType":"image/png",
			"name":"metal_col",
			"uri":"../tex/metal_col.png"
		}
	],
	"accessors":[
		{
			"bufferView":0,
			"componentType":5126,
			"count":920,
			"max":[
				0.36000001430511475,
				0.7200000286102295,
				0.36000001430511475
			],
			"min":[
				-0.36000001430511475,
				0,
				-0.36000001430511475
			],
			"type":"VEC3"
		},
		{
			"bufferView":1,
			"componentType":5126,
			"count":920,
			"type":"VEC3"
		},
		{
			"bufferView":2,
			"componentType":5126,
			"count":920,
			"type":"VEC2"
		},
		{
			"bufferView":3,
			"componentType":5123,
			"count":1320,
			"type":"SCALAR"
		}
	],
	"bufferViews":[
		{
			"buffer":0,
			"byteLength":11040,
			"byteOffset":0,
			"target":34962
		},
		{
			"buffer":0,
			"byteLength":11040,
			"byteOffset":11040,
			"target":34962
		},
		{
			"buffer":0,
			"byteLength":7360,
			"byteOffset":22080,
			"target":34962
		},
		{
			"buffer":0,
			"byteLength":2640,
			"byteOffset":29440,
			"target":34963
		}
	],
	"samplers":[
		{
			"magFilter":9729,
			"minFilter":9987
		}
	],
	"buffers":[
		{
			"byteLength":32080,
			"uri":"ball.bin"
		}
	]
}
