{
	"asset":{
		"generator":"Khronos glTF Blender I/O v5.2.39",
		"version":"2.0"
	},
	"scene":0,
	"scenes":[
		{
			"name":"Scene",
			"nodes":[
				0
			]
		}
	],
	"nodes":[
		{
			"mesh":0,
			"name":"jx_blast"
		}
	],
	"materials":[
		{
			"doubleSided":true,
			"name":"jx_metal",
			"pbrMetallicRoughness":{
				"baseColorTexture":{
					"index":0
				},
				"metallicFactor":0.6000000238418579,
				"roughnessFactor":0.44999998807907104
			}
		},
		{
			"doubleSided":true,
			"name":"jx_paint",
			"pbrMetallicRoughness":{
				"baseColorTexture":{
					"index":1
				},
				"metallicFactor":0,
				"roughnessFactor":0.550000011920929
			}
		}
	],
	"meshes":[
		{
			"name":"jx_blast",
			"primitives":[
				{
					"attributes":{
						"POSITION":0,
						"NORMAL":1,
						"TEXCOORD_0":2
					},
					"indices":3,
					"material":0
				},
				{
					"attributes":{
						"POSITION":4,
						"NORMAL":5,
						"TEXCOORD_0":6
					},
					"indices":7,
					"material":1
				}
			]
		}
	],
	"textures":[
		{
			"sampler":0,
			"source":0
		},
		{
			"sampler":0,
			"source":1
		}
	],
	"images":[
		{
			"mimeType":"image/png",
			"name":"metal_col",
			"uri":"../tex/metal_col.png"
		},
		{
			"mimeType":"image/png",
			"name":"paint_col",
			"uri":"../tex/paint_col.png"
		}
	],
	"accessors":[
		{
			"bufferView":0,
			"componentType":5126,
			"count":192,
			"max":[
				1.0499999523162842,
				4.599999904632568,
				0.30000001192092896
			],
			"min":[
				-1.1100000143051147,
				0,
				-0.17000000178813934
			],
			"type":"VEC3"
		},
		{
			"bufferView":1,
			"componentType":5126,
			"count":192,
			"type":"VEC3"
		},
		{
			"bufferView":2,
			"componentType":5126,
			"count":192,
			"type":"VEC2"
		},
		{
			"bufferView":3,
			"componentType":5123,
			"count":336,
			"type":"SCALAR"
		},
		{
			"bufferView":4,
			"componentType":5126,
			"count":144,
			"max":[
				0.9700000286102295,
				4.449999809265137,
				0.2800000011920929
			],
			"min":[
				-0.9700000286102295,
				0.15000000596046448,
				-0.25
			],
			"type":"VEC3"
		},
		{
			"bufferView":5,
			"componentType":5126,
			"count":144,
			"type":"VEC3"
		},
		{
			"bufferView":6,
			"componentType":5126,
			"count":144,
			"type":"VEC2"
		},
		{
			"bufferView":7,
			"componentType":5123,
			"count":216,
			"type":"SCALAR"
		}
	],
	"bufferViews":[
		{
			"buffer":0,
			"byteLength":2304,
			"byteOffset":0,
			"target":34962
		},
		{
			"buffer":0,
			"byteLength":2304,
			"byteOffset":2304,
			"target":34962
		},
		{
			"buffer":0,
			"byteLength":1536,
			"byteOffset":4608,
			"target":34962
		},
		{
			"buffer":0,
			"byteLength":672,
			"byteOffset":6144,
			"target":34963
		},
		{
			"buffer":0,
			"byteLength":1728,
			"byteOffset":6816,
			"target":34962
		},
		{
			"buffer":0,
			"byteLength":1728,
			"byteOffset":8544,
			"target":34962
		},
		{
			"buffer":0,
			"byteLength":1152,
			"byteOffset":10272,
			"target":34962
		},
		{
			"buffer":0,
			"byteLength":432,
			"byteOffset":11424,
			"target":34963
		}
	],
	"samplers":[
		{
			"magFilter":9729,
			"minFilter":9987
		}
	],
	"buffers":[
		{
			"byteLength":11856,
			"uri":"blast.bin"
		}
	]
}
