{
	"asset":{
		"generator":"Khronos glTF Blender I/O v5.2.39",
		"version":"2.0"
	},
	"scene":0,
	"scenes":[
		{
			"name":"Scene",
			"nodes":[
				0
			]
		}
	],
	"nodes":[
		{
			"mesh":0,
			"name":"jx_busboard"
		}
	],
	"materials":[
		{
			"doubleSided":true,
			"name":"jx_metal",
			"pbrMetallicRoughness":{
				"baseColorTexture":{
					"index":0
				},
				"metallicFactor":0.6000000238418579,
				"roughnessFactor":0.44999998807907104
			}
		},
		{
			"doubleSided":true,
			"name":"jx_paint",
			"pbrMetallicRoughness":{
				"baseColorTexture":{
					"index":1
				},
				"metallicFactor":0,
				"roughnessFactor":0.550000011920929
			}
		},
		{
			"doubleSided":true,
			"name":"jx_dark",
			"pbrMetallicRoughness":{
				"baseColorTexture":{
					"index":2
				},
				"metallicFactor":0,
				"roughnessFactor":0.9800000190734863
			}
		},
		{
			"doubleSided":true,
			"name":"jx_plain",
			"pbrMetallicRoughness":{
				"baseColorTexture":{
					"index":3
				},
				"metallicFactor":0,
				"roughnessFactor":0.550000011920929
			}
		}
	],
	"meshes":[
		{
			"name":"jx_busboard",
			"primitives":[
				{
					"attributes":{
						"POSITION":0,
						"NORMAL":1,
						"TEXCOORD_0":2
					},
					"indices":3,
					"material":0
				},
				{
					"attributes":{
						"POSITION":4,
						"NORMAL":5,
						"TEXCOORD_0":6
					},
					"indices":7,
					"material":1
				},
				{
					"attributes":{
						"POSITION":8,
						"NORMAL":9,
						"TEXCOORD_0":10
					},
					"indices":11,
					"material":2
				},
				{
					"attributes":{
						"POSITION":12,
						"NORMAL":13,
						"TEXCOORD_0":14
					},
					"indices":11,
					"material":3
				}
			]
		}
	],
	"textures":[
		{
			"sampler":0,
			"source":0
		},
		{
			"sampler":0,
			"source":1
		},
		{
			"sampler":0,
			"source":2
		},
		{
			"sampler":0,
			"source":3
		}
	],
	"images":[
		{
			"mimeType":"image/png",
			"name":"metal_col",
			"uri":"../tex/metal_col.png"
		},
		{
			"mimeType":"image/png",
			"name":"paint_col",
			"uri":"../tex/paint_col.png"
		},
		{
			"mimeType":"image/png",
			"name":"dark_col",
			"uri":"../tex/dark_col.png"
		},
		{
			"mimeType":"image/png",
			"name":"plain_col",
			"uri":"../tex/plain_col.png"
		}
	],
	"accessors":[
		{
			"bufferView":0,
			"componentType":5126,
			"count":684,
			"max":[
				2.299999952316284,
				3.5999999046325684,
				0.36000001430511475
			],
			"min":[
				-2.299999952316284,
				0,
				-0.36000001430511475
			],
			"type":"VEC3"
		},
		{
			"bufferView":1,
			"componentType":5126,
			"count":684,
			"type":"VEC3"
		},
		{
			"bufferView":2,
			"componentType":5126,
			"count":684,
			"type":"VEC2"
		},
		{
			"bufferView":3,
			"componentType":5123,
			"count":1116,
			"type":"SCALAR"
		},
		{
			"bufferView":4,
			"componentType":5126,
			"count":24,
			"max":[
				2.180000066757202,
				2.700000047683716,
				0.28999999165534973
			],
			"min":[
				-2.180000066757202,
				0.18000000715255737,
				-0.28999999165534973
			],
			"type":"VEC3"
		},
		{
			"bufferView":5,
			"componentType":5126,
			"count":24,
			"type":"VEC3"
		},
		{
			"bufferView":6,
			"componentType":5126,
			"count":24,
			"type":"VEC2"
		},
		{
			"bufferView":7,
			"componentType":5123,
			"count":36,
			"type":"SCALAR"
		},
		{
			"bufferView":8,
			"componentType":5126,
			"count":120,
			"max":[
				1.850000023841858,
				2.109999895095825,
				0.3400000035762787
			],
			"min":[
				-1.850000023841858,
				1.6100000143051147,
				0.3199999928474426
			],
			"type":"VEC3"
		},
		{
			"bufferView":9,
			"componentType":5126,
			"count":120,
			"type":"VEC3"
		},
		{
			"bufferView":10,
			"componentType":5126,
			"count":120,
			"type":"VEC2"
		},
		{
			"bufferView":11,
			"componentType":5123,
			"count":180,
			"type":"SCALAR"
		},
		{
			"bufferView":12,
			"componentType":5126,
			"count":120,
			"max":[
				1.8799999952316284,
				1.4299999475479126,
				0.3199999928474426
			],
			"min":[
				-1.8799999952316284,
				1.2899999618530273,
				0.2800000011920929
			],
			"type":"VEC3"
		},
		{
			"bufferView":13,
			"componentType":5126,
			"count":120,
			"type":"VEC3"
		},
		{
			"bufferView":14,
			"componentType":5126,
			"count":120,
			"type":"VEC2"
		}
	],
	"bufferViews":[
		{
			"buffer":0,
			"byteLength":8208,
			"byteOffset":0,
			"target":34962
		},
		{
			"buffer":0,
			"byteLength":8208,
			"byteOffset":8208,
			"target":34962
		},
		{
			"buffer":0,
			"byteLength":5472,
			"byteOffset":16416,
			"target":34962
		},
		{
			"buffer":0,
			"byteLength":2232,
			"byteOffset":21888,
			"target":34963
		},
		{
			"buffer":0,
			"byteLength":288,
			"byteOffset":24120,
			"target":34962
		},
		{
			"buffer":0,
			"byteLength":288,
			"byteOffset":24408,
			"target":34962
		},
		{
			"buffer":0,
			"byteLength":192,
			"byteOffset":24696,
			"target":34962
		},
		{
			"buffer":0,
			"byteLength":72,
			"byteOffset":24888,
			"target":34963
		},
		{
			"buffer":0,
			"byteLength":1440,
			"byteOffset":24960,
			"target":34962
		},
		{
			"buffer":0,
			"byteLength":1440,
			"byteOffset":26400,
			"target":34962
		},
		{
			"buffer":0,
			"byteLength":960,
			"byteOffset":27840,
			"target":34962
		},
		{
			"buffer":0,
			"byteLength":360,
			"byteOffset":28800,
			"target":34963
		},
		{
			"buffer":0,
			"byteLength":1440,
			"byteOffset":29160,
			"target":34962
		},
		{
			"buffer":0,
			"byteLength":1440,
			"byteOffset":30600,
			"target":34962
		},
		{
			"buffer":0,
			"byteLength":960,
			"byteOffset":32040,
			"target":34962
		}
	],
	"samplers":[
		{
			"magFilter":9729,
			"minFilter":9987
		}
	],
	"buffers":[
		{
			"byteLength":33000,
			"uri":"busboard.bin"
		}
	]
}
