{
	"asset":{
		"generator":"Khronos glTF Blender I/O v5.2.39",
		"version":"2.0"
	},
	"scene":0,
	"scenes":[
		{
			"name":"Scene",
			"nodes":[
				0
			]
		}
	],
	"nodes":[
		{
			"mesh":0,
			"name":"jx_busplug"
		}
	],
	"materials":[
		{
			"doubleSided":true,
			"name":"jx_dark",
			"pbrMetallicRoughness":{
				"baseColorTexture":{
					"index":0
				},
				"metallicFactor":0,
				"roughnessFactor":0.9800000190734863
			}
		},
		{
			"doubleSided":true,
			"name":"jx_paint",
			"pbrMetallicRoughness":{
				"baseColorTexture":{
					"index":1
				},
				"metallicFactor":0,
				"roughnessFactor":0.550000011920929
			}
		},
		{
			"doubleSided":true,
			"name":"jx_metal",
			"pbrMetallicRoughness":{
				"baseColorTexture":{
					"index":2
				},
				"metallicFactor":0.6000000238418579,
				"roughnessFactor":0.44999998807907104
			}
		}
	],
	"meshes":[
		{
			"name":"jx_busplug",
			"primitives":[
				{
					"attributes":{
						"POSITION":0,
						"NORMAL":1,
						"TEXCOORD_0":2
					},
					"indices":3,
					"material":0
				},
				{
					"attributes":{
						"POSITION":4,
						"NORMAL":5,
						"TEXCOORD_0":6
					},
					"indices":7,
					"material":1
				},
				{
					"attributes":{
						"POSITION":8,
						"NORMAL":9,
						"TEXCOORD_0":10
					},
					"indices":11,
					"material":2
				}
			]
		}
	],
	"textures":[
		{
			"sampler":0,
			"source":0
		},
		{
			"sampler":0,
			"source":1
		},
		{
			"sampler":0,
			"source":2
		}
	],
	"images":[
		{
			"mimeType":"image/png",
			"name":"dark_col",
			"uri":"../tex/dark_col.png"
		},
		{
			"mimeType":"image/png",
			"name":"paint_col",
			"uri":"../tex/paint_col.png"
		},
		{
			"mimeType":"image/png",
			"name":"metal_col",
			"uri":"../tex/metal_col.png"
		}
	],
	"accessors":[
		{
			"bufferView":0,
			"componentType":5126,
			"count":140,
			"max":[
				0.07500000298023224,
				0.07311959564685822,
				-0.23000000417232513
			],
			"min":[
				-0.07500000298023224,
				-0.07311959564685822,
				-0.3499999940395355
			],
			"type":"VEC3"
		},
		{
			"bufferView":1,
			"componentType":5126,
			"count":140,
			"type":"VEC3"
		},
		{
			"bufferView":2,
			"componentType":5126,
			"count":140,
			"type":"VEC2"
		},
		{
			"bufferView":3,
			"componentType":5123,
			"count":240,
			"type":"SCALAR"
		},
		{
			"bufferView":4,
			"componentType":5126,
			"count":768,
			"max":[
				0.1379999965429306,
				0.135903462767601,
				0.12999999523162842
			],
			"min":[
				-0.1379999965429306,
				-0.135903462767601,
				-0.23000000417232513
			],
			"type":"VEC3"
		},
		{
			"bufferView":5,
			"componentType":5126,
			"count":768,
			"type":"VEC3"
		},
		{
			"bufferView":6,
			"componentType":5126,
			"count":768,
			"type":"VEC2"
		},
		{
			"bufferView":7,
			"componentType":5123,
			"count":1392,
			"type":"SCALAR"
		},
		{
			"bufferView":8,
			"componentType":5126,
			"count":552,
			"max":[
				0.14800000190734863,
				0.16300000250339508,
				0.550000011920929
			],
			"min":[
				-0.14800000190734863,
				-0.14575155079364777,
				0.12999999523162842
			],
			"type":"VEC3"
		},
		{
			"bufferView":9,
			"componentType":5126,
			"count":552,
			"type":"VEC3"
		},
		{
			"bufferView":10,
			"componentType":5126,
			"count":552,
			"type":"VEC2"
		},
		{
			"bufferView":11,
			"componentType":5123,
			"count":894,
			"type":"SCALAR"
		}
	],
	"bufferViews":[
		{
			"buffer":0,
			"byteLength":1680,
			"byteOffset":0,
			"target":34962
		},
		{
			"buffer":0,
			"byteLength":1680,
			"byteOffset":1680,
			"target":34962
		},
		{
			"buffer":0,
			"byteLength":1120,
			"byteOffset":3360,
			"target":34962
		},
		{
			"buffer":0,
			"byteLength":480,
			"byteOffset":4480,
			"target":34963
		},
		{
			"buffer":0,
			"byteLength":9216,
			"byteOffset":4960,
			"target":34962
		},
		{
			"buffer":0,
			"byteLength":9216,
			"byteOffset":14176,
			"target":34962
		},
		{
			"buffer":0,
			"byteLength":6144,
			"byteOffset":23392,
			"target":34962
		},
		{
			"buffer":0,
			"byteLength":2784,
			"byteOffset":29536,
			"target":34963
		},
		{
			"buffer":0,
			"byteLength":6624,
			"byteOffset":32320,
			"target":34962
		},
		{
			"buffer":0,
			"byteLength":6624,
			"byteOffset":38944,
			"target":34962
		},
		{
			"buffer":0,
			"byteLength":4416,
			"byteOffset":45568,
			"target":34962
		},
		{
			"buffer":0,
			"byteLength":1788,
			"byteOffset":49984,
			"target":34963
		}
	],
	"samplers":[
		{
			"magFilter":9729,
			"minFilter":9987
		}
	],
	"buffers":[
		{
			"byteLength":51772,
			"uri":"busplug.bin"
		}
	]
}
