{
	"asset":{
		"generator":"Khronos glTF Blender I/O v5.2.39",
		"version":"2.0"
	},
	"scene":0,
	"scenes":[
		{
			"name":"Scene",
			"nodes":[
				0
			]
		}
	],
	"nodes":[
		{
			"mesh":0,
			"name":"jx_bussocket_cross"
		}
	],
	"materials":[
		{
			"doubleSided":true,
			"name":"jx_metal",
			"pbrMetallicRoughness":{
				"baseColorTexture":{
					"index":0
				},
				"metallicFactor":0.6000000238418579,
				"roughnessFactor":0.44999998807907104
			}
		},
		{
			"doubleSided":true,
			"name":"jx_dark",
			"pbrMetallicRoughness":{
				"baseColorTexture":{
					"index":1
				},
				"metallicFactor":0,
				"roughnessFactor":0.9800000190734863
			}
		},
		{
			"doubleSided":true,
			"name":"jx_paint",
			"pbrMetallicRoughness":{
				"baseColorTexture":{
					"index":2
				},
				"metallicFactor":0,
				"roughnessFactor":0.550000011920929
			}
		}
	],
	"meshes":[
		{
			"name":"jx_bussocket_cross",
			"primitives":[
				{
					"attributes":{
						"POSITION":0,
						"NORMAL":1,
						"TEXCOORD_0":2
					},
					"indices":3,
					"material":0
				},
				{
					"attributes":{
						"POSITION":4,
						"NORMAL":5,
						"TEXCOORD_0":6
					},
					"indices":7,
					"material":1
				},
				{
					"attributes":{
						"POSITION":8,
						"NORMAL":9,
						"TEXCOORD_0":10
					},
					"indices":11,
					"material":2
				}
			]
		}
	],
	"textures":[
		{
			"sampler":0,
			"source":0
		},
		{
			"sampler":0,
			"source":1
		},
		{
			"sampler":0,
			"source":2
		}
	],
	"images":[
		{
			"mimeType":"image/png",
			"name":"metal_col",
			"uri":"../tex/metal_col.png"
		},
		{
			"mimeType":"image/png",
			"name":"dark_col",
			"uri":"../tex/dark_col.png"
		},
		{
			"mimeType":"image/png",
			"name":"paint_col",
			"uri":"../tex/paint_col.png"
		}
	],
	"accessors":[
		{
			"bufferView":0,
			"componentType":5126,
			"count":980,
			"max":[
				0.3499999940395355,
				0.3499999940395355,
				0.02199999988079071
			],
			"min":[
				-0.3499999940395355,
				-0.3499999940395355,
				-0.3400000035762787
			],
			"type":"VEC3"
		},
		{
			"bufferView":1,
			"componentType":5126,
			"count":980,
			"type":"VEC3"
		},
		{
			"bufferView":2,
			"componentType":5126,
			"count":980,
			"type":"VEC2"
		},
		{
			"bufferView":3,
			"componentType":5123,
			"count":1452,
			"type":"SCALAR"
		},
		{
			"bufferView":4,
			"componentType":5126,
			"count":80,
			"max":[
				0.12999999523162842,
				0.12999999523162842,
				-0.25999999046325684
			],
			"min":[
				-0.12999999523162842,
				-0.12999999523162842,
				-0.25999999046325684
			],
			"type":"VEC3"
		},
		{
			"bufferView":5,
			"componentType":5126,
			"count":80,
			"type":"VEC3"
		},
		{
			"bufferView":6,
			"componentType":5126,
			"count":80,
			"type":"VEC2"
		},
		{
			"bufferView":7,
			"componentType":5123,
			"count":114,
			"type":"SCALAR"
		},
		{
			"bufferView":8,
			"componentType":5126,
			"count":96,
			"max":[
				0.3100000023841858,
				0.3100000023841858,
				0.012000000104308128
			],
			"min":[
				-0.3100000023841858,
				-0.3100000023841858,
				0
			],
			"type":"VEC3"
		},
		{
			"bufferView":9,
			"componentType":5126,
			"count":96,
			"type":"VEC3"
		},
		{
			"bufferView":10,
			"componentType":5126,
			"count":96,
			"type":"VEC2"
		},
		{
			"bufferView":11,
			"componentType":5123,
			"count":144,
			"type":"SCALAR"
		}
	],
	"bufferViews":[
		{
			"buffer":0,
			"byteLength":11760,
			"byteOffset":0,
			"target":34962
		},
		{
			"buffer":0,
			"byteLength":11760,
			"byteOffset":11760,
			"target":34962
		},
		{
			"buffer":0,
			"byteLength":7840,
			"byteOffset":23520,
			"target":34962
		},
		{
			"buffer":0,
			"byteLength":2904,
			"byteOffset":31360,
			"target":34963
		},
		{
			"buffer":0,
			"byteLength":960,
			"byteOffset":34264,
			"target":34962
		},
		{
			"buffer":0,
			"byteLength":960,
			"byteOffset":35224,
			"target":34962
		},
		{
			"buffer":0,
			"byteLength":640,
			"byteOffset":36184,
			"target":34962
		},
		{
			"buffer":0,
			"byteLength":228,
			"byteOffset":36824,
			"target":34963
		},
		{
			"buffer":0,
			"byteLength":1152,
			"byteOffset":37052,
			"target":34962
		},
		{
			"buffer":0,
			"byteLength":1152,
			"byteOffset":38204,
			"target":34962
		},
		{
			"buffer":0,
			"byteLength":768,
			"byteOffset":39356,
			"target":34962
		},
		{
			"buffer":0,
			"byteLength":288,
			"byteOffset":40124,
			"target":34963
		}
	],
	"samplers":[
		{
			"magFilter":9729,
			"minFilter":9987
		}
	],
	"buffers":[
		{
			"byteLength":40412,
			"uri":"bussocket_cross.bin"
		}
	]
}
