{
	"asset":{
		"generator":"Khronos glTF Blender I/O v5.2.39",
		"version":"2.0"
	},
	"scene":0,
	"scenes":[
		{
			"name":"Scene",
			"nodes":[
				0
			]
		}
	],
	"nodes":[
		{
			"mesh":0,
			"name":"jx_falls"
		}
	],
	"materials":[
		{
			"doubleSided":true,
			"name":"jx_falls",
			"pbrMetallicRoughness":{
				"baseColorTexture":{
					"index":0
				},
				"metallicFactor":0,
				"roughnessFactor":0.23999999463558197
			}
		}
	],
	"meshes":[
		{
			"name":"jx_falls",
			"primitives":[
				{
					"attributes":{
						"POSITION":0,
						"NORMAL":1,
						"TEXCOORD_0":2
					},
					"indices":3,
					"material":0
				}
			]
		}
	],
	"textures":[
		{
			"sampler":0,
			"source":0
		}
	],
	"images":[
		{
			"mimeType":"image/png",
			"name":"falls_col",
			"uri":"../tex/falls_col.png"
		}
	],
	"accessors":[
		{
			"bufferView":0,
			"componentType":5126,
			"count":1280,
			"max":[
				6,
				6,
				0.027491899207234383
			],
			"min":[
				-6,
				0,
				-0.27352869510650635
			],
			"type":"VEC3"
		},
		{
			"bufferView":1,
			"componentType":5126,
			"count":1280,
			"type":"VEC3"
		},
		{
			"bufferView":2,
			"componentType":5126,
			"count":1280,
			"type":"VEC2"
		},
		{
			"bufferView":3,
			"componentType":5123,
			"count":1920,
			"type":"SCALAR"
		}
	],
	"bufferViews":[
		{
			"buffer":0,
			"byteLength":15360,
			"byteOffset":0,
			"target":34962
		},
		{
			"buffer":0,
			"byteLength":15360,
			"byteOffset":15360,
			"target":34962
		},
		{
			"buffer":0,
			"byteLength":10240,
			"byteOffset":30720,
			"target":34962
		},
		{
			"buffer":0,
			"byteLength":3840,
			"byteOffset":40960,
			"target":34963
		}
	],
	"samplers":[
		{
			"magFilter":9729,
			"minFilter":9987
		}
	],
	"buffers":[
		{
			"byteLength":44800,
			"uri":"falls.bin"
		}
	]
}
