{
	"asset":{
		"generator":"Khronos glTF Blender I/O v5.2.39",
		"version":"2.0"
	},
	"scene":0,
	"scenes":[
		{
			"name":"Scene",
			"nodes":[
				0
			]
		}
	],
	"nodes":[
		{
			"mesh":0,
			"name":"jx_fallsrail"
		}
	],
	"materials":[
		{
			"doubleSided":true,
			"name":"jx_metal",
			"pbrMetallicRoughness":{
				"baseColorTexture":{
					"index":0
				},
				"metallicFactor":0.6000000238418579,
				"roughnessFactor":0.44999998807907104
			}
		},
		{
			"doubleSided":true,
			"name":"jx_paint",
			"pbrMetallicRoughness":{
				"baseColorTexture":{
					"index":1
				},
				"metallicFactor":0,
				"roughnessFactor":0.550000011920929
			}
		}
	],
	"meshes":[
		{
			"name":"jx_fallsrail",
			"primitives":[
				{
					"attributes":{
						"POSITION":0,
						"NORMAL":1,
						"TEXCOORD_0":2
					},
					"indices":3,
					"material":0
				},
				{
					"attributes":{
						"POSITION":4,
						"NORMAL":5,
						"TEXCOORD_0":6
					},
					"indices":7,
					"material":1
				}
			]
		}
	],
	"textures":[
		{
			"sampler":0,
			"source":0
		},
		{
			"sampler":0,
			"source":1
		}
	],
	"images":[
		{
			"mimeType":"image/png",
			"name":"metal_col",
			"uri":"../tex/metal_col.png"
		},
		{
			"mimeType":"image/png",
			"name":"paint_col",
			"uri":"../tex/paint_col.png"
		}
	],
	"accessors":[
		{
			"bufferView":0,
			"componentType":5126,
			"count":1464,
			"max":[
				12.0600004196167,
				1.1080000400543213,
				0.125
			],
			"min":[
				-0.05999999865889549,
				0,
				-0.125
			],
			"type":"VEC3"
		},
		{
			"bufferView":1,
			"componentType":5126,
			"count":1464,
			"type":"VEC3"
		},
		{
			"bufferView":2,
			"componentType":5126,
			"count":1464,
			"type":"VEC2"
		},
		{
			"bufferView":3,
			"componentType":5123,
			"count":2448,
			"type":"SCALAR"
		},
		{
			"bufferView":4,
			"componentType":5126,
			"count":240,
			"max":[
				12.130000114440918,
				0.2199999988079071,
				0.12999999523162842
			],
			"min":[
				-0.12999999523162842,
				0,
				-0.12999999523162842
			],
			"type":"VEC3"
		},
		{
			"bufferView":5,
			"componentType":5126,
			"count":240,
			"type":"VEC3"
		},
		{
			"bufferView":6,
			"componentType":5126,
			"count":240,
			"type":"VEC2"
		},
		{
			"bufferView":7,
			"componentType":5123,
			"count":360,
			"type":"SCALAR"
		}
	],
	"bufferViews":[
		{
			"buffer":0,
			"byteLength":17568,
			"byteOffset":0,
			"target":34962
		},
		{
			"buffer":0,
			"byteLength":17568,
			"byteOffset":17568,
			"target":34962
		},
		{
			"buffer":0,
			"byteLength":11712,
			"byteOffset":35136,
			"target":34962
		},
		{
			"buffer":0,
			"byteLength":4896,
			"byteOffset":46848,
			"target":34963
		},
		{
			"buffer":0,
			"byteLength":2880,
			"byteOffset":51744,
			"target":34962
		},
		{
			"buffer":0,
			"byteLength":2880,
			"byteOffset":54624,
			"target":34962
		},
		{
			"buffer":0,
			"byteLength":1920,
			"byteOffset":57504,
			"target":34962
		},
		{
			"buffer":0,
			"byteLength":720,
			"byteOffset":59424,
			"target":34963
		}
	],
	"samplers":[
		{
			"magFilter":9729,
			"minFilter":9987
		}
	],
	"buffers":[
		{
			"byteLength":60144,
			"uri":"fallsrail.bin"
		}
	]
}
