{
	"asset":{
		"generator":"Khronos glTF Blender I/O v5.2.39",
		"version":"2.0"
	},
	"scene":0,
	"scenes":[
		{
			"name":"Scene",
			"nodes":[
				0
			]
		}
	],
	"nodes":[
		{
			"mesh":0,
			"name":"jx_goal"
		}
	],
	"materials":[
		{
			"doubleSided":true,
			"name":"jx_metal_d",
			"pbrMetallicRoughness":{
				"baseColorTexture":{
					"index":0
				},
				"metallicFactor":0.550000011920929,
				"roughnessFactor":0.41999998688697815
			}
		},
		{
			"doubleSided":true,
			"name":"jx_glow",
			"pbrMetallicRoughness":{
				"baseColorTexture":{
					"index":1
				},
				"metallicFactor":0,
				"roughnessFactor":0.3499999940395355
			}
		},
		{
			"doubleSided":true,
			"name":"jx_exit",
			"pbrMetallicRoughness":{
				"baseColorTexture":{
					"index":2
				},
				"metallicFactor":0,
				"roughnessFactor":0.4000000059604645
			}
		}
	],
	"meshes":[
		{
			"name":"jx_goal",
			"primitives":[
				{
					"attributes":{
						"POSITION":0,
						"NORMAL":1,
						"TEXCOORD_0":2
					},
					"indices":3,
					"material":0
				},
				{
					"attributes":{
						"POSITION":4,
						"NORMAL":5,
						"TEXCOORD_0":6
					},
					"indices":7,
					"material":1
				},
				{
					"attributes":{
						"POSITION":8,
						"NORMAL":9,
						"TEXCOORD_0":10
					},
					"indices":11,
					"material":2
				}
			]
		}
	],
	"textures":[
		{
			"sampler":0,
			"source":0
		},
		{
			"sampler":0,
			"source":1
		},
		{
			"sampler":0,
			"source":2
		}
	],
	"images":[
		{
			"mimeType":"image/png",
			"name":"dark_col",
			"uri":"../tex/dark_col.png"
		},
		{
			"mimeType":"image/png",
			"name":"glow_col",
			"uri":"../tex/glow_col.png"
		},
		{
			"mimeType":"image/png",
			"name":"exit_col",
			"uri":"../tex/exit_col.png"
		}
	],
	"accessors":[
		{
			"bufferView":0,
			"componentType":5126,
			"count":264,
			"max":[
				1.2999999523162842,
				2.9000000953674316,
				0.550000011920929
			],
			"min":[
				-1.2999999523162842,
				0,
				-0.550000011920929
			],
			"type":"VEC3"
		},
		{
			"bufferView":1,
			"componentType":5126,
			"count":264,
			"type":"VEC3"
		},
		{
			"bufferView":2,
			"componentType":5126,
			"count":264,
			"type":"VEC2"
		},
		{
			"bufferView":3,
			"componentType":5123,
			"count":396,
			"type":"SCALAR"
		},
		{
			"bufferView":4,
			"componentType":5126,
			"count":156,
			"max":[
				1.1200000047683716,
				2.299999952316284,
				2.890000104904175
			],
			"min":[
				-1.1200000047683716,
				0.00800000037997961,
				-2.890000104904175
			],
			"type":"VEC3"
		},
		{
			"bufferView":5,
			"componentType":5126,
			"count":156,
			"type":"VEC3"
		},
		{
			"bufferView":6,
			"componentType":5126,
			"count":156,
			"type":"VEC2"
		},
		{
			"bufferView":7,
			"componentType":5123,
			"count":216,
			"type":"SCALAR"
		},
		{
			"bufferView":8,
			"componentType":5126,
			"count":8,
			"max":[
				0.6399999856948853,
				2.859999895095825,
				0.07599999755620956
			],
			"min":[
				-0.6399999856948853,
				2.559999942779541,
				-0.07599999755620956
			],
			"type":"VEC3"
		},
		{
			"bufferView":9,
			"componentType":5126,
			"count":8,
			"type":"VEC3"
		},
		{
			"bufferView":10,
			"componentType":5126,
			"count":8,
			"type":"VEC2"
		},
		{
			"bufferView":11,
			"componentType":5123,
			"count":12,
			"type":"SCALAR"
		}
	],
	"bufferViews":[
		{
			"buffer":0,
			"byteLength":3168,
			"byteOffset":0,
			"target":34962
		},
		{
			"buffer":0,
			"byteLength":3168,
			"byteOffset":3168,
			"target":34962
		},
		{
			"buffer":0,
			"byteLength":2112,
			"byteOffset":6336,
			"target":34962
		},
		{
			"buffer":0,
			"byteLength":792,
			"byteOffset":8448,
			"target":34963
		},
		{
			"buffer":0,
			"byteLength":1872,
			"byteOffset":9240,
			"target":34962
		},
		{
			"buffer":0,
			"byteLength":1872,
			"byteOffset":11112,
			"target":34962
		},
		{
			"buffer":0,
			"byteLength":1248,
			"byteOffset":12984,
			"target":34962
		},
		{
			"buffer":0,
			"byteLength":432,
			"byteOffset":14232,
			"target":34963
		},
		{
			"buffer":0,
			"byteLength":96,
			"byteOffset":14664,
			"target":34962
		},
		{
			"buffer":0,
			"byteLength":96,
			"byteOffset":14760,
			"target":34962
		},
		{
			"buffer":0,
			"byteLength":64,
			"byteOffset":14856,
			"target":34962
		},
		{
			"buffer":0,
			"byteLength":24,
			"byteOffset":14920,
			"target":34963
		}
	],
	"samplers":[
		{
			"magFilter":9729,
			"minFilter":9987
		}
	],
	"buffers":[
		{
			"byteLength":14944,
			"uri":"goal.bin"
		}
	]
}
