{
	"asset":{
		"generator":"Khronos glTF Blender I/O v5.2.39",
		"version":"2.0"
	},
	"scene":0,
	"scenes":[
		{
			"name":"Scene",
			"nodes":[
				0
			]
		}
	],
	"nodes":[
		{
			"mesh":0,
			"name":"jx_lockplate"
		}
	],
	"materials":[
		{
			"doubleSided":true,
			"name":"jx_metal",
			"pbrMetallicRoughness":{
				"baseColorTexture":{
					"index":0
				},
				"metallicFactor":0.6000000238418579,
				"roughnessFactor":0.44999998807907104
			}
		},
		{
			"doubleSided":true,
			"name":"jx_paint",
			"pbrMetallicRoughness":{
				"baseColorTexture":{
					"index":1
				},
				"metallicFactor":0,
				"roughnessFactor":0.550000011920929
			}
		},
		{
			"doubleSided":true,
			"name":"jx_plain",
			"pbrMetallicRoughness":{
				"baseColorTexture":{
					"index":2
				},
				"metallicFactor":0,
				"roughnessFactor":0.550000011920929
			}
		}
	],
	"meshes":[
		{
			"name":"jx_lockplate",
			"primitives":[
				{
					"attributes":{
						"POSITION":0,
						"NORMAL":1,
						"TEXCOORD_0":2
					},
					"indices":3,
					"material":0
				},
				{
					"attributes":{
						"POSITION":4,
						"NORMAL":5,
						"TEXCOORD_0":6
					},
					"indices":7,
					"material":1
				},
				{
					"attributes":{
						"POSITION":8,
						"NORMAL":9,
						"TEXCOORD_0":10
					},
					"indices":11,
					"material":2
				}
			]
		}
	],
	"textures":[
		{
			"sampler":0,
			"source":0
		},
		{
			"sampler":0,
			"source":1
		},
		{
			"sampler":0,
			"source":2
		}
	],
	"images":[
		{
			"mimeType":"image/png",
			"name":"metal_col",
			"uri":"../tex/metal_col.png"
		},
		{
			"mimeType":"image/png",
			"name":"paint_col",
			"uri":"../tex/paint_col.png"
		},
		{
			"mimeType":"image/png",
			"name":"plain_col",
			"uri":"../tex/plain_col.png"
		}
	],
	"accessors":[
		{
			"bufferView":0,
			"componentType":5126,
			"count":948,
			"max":[
				1.3700000047683716,
				3.200000047683716,
				0.28999999165534973
			],
			"min":[
				-1.4013292789459229,
				0,
				-0.10000000149011612
			],
			"type":"VEC3"
		},
		{
			"bufferView":1,
			"componentType":5126,
			"count":948,
			"type":"VEC3"
		},
		{
			"bufferView":2,
			"componentType":5126,
			"count":948,
			"type":"VEC2"
		},
		{
			"bufferView":3,
			"componentType":5123,
			"count":1500,
			"type":"SCALAR"
		},
		{
			"bufferView":4,
			"componentType":5126,
			"count":216,
			"max":[
				1.350000023841858,
				2.9249026775360107,
				0.25999999046325684
			],
			"min":[
				-1.350000023841858,
				0.2750973105430603,
				-0.05999999865889549
			],
			"type":"VEC3"
		},
		{
			"bufferView":5,
			"componentType":5126,
			"count":216,
			"type":"VEC3"
		},
		{
			"bufferView":6,
			"componentType":5126,
			"count":216,
			"type":"VEC2"
		},
		{
			"bufferView":7,
			"componentType":5123,
			"count":324,
			"type":"SCALAR"
		},
		{
			"bufferView":8,
			"componentType":5126,
			"count":24,
			"max":[
				0.36000001430511475,
				2.119999885559082,
				0.15000000596046448
			],
			"min":[
				-0.36000001430511475,
				1.9600000381469727,
				0.10999999940395355
			],
			"type":"VEC3"
		},
		{
			"bufferView":9,
			"componentType":5126,
			"count":24,
			"type":"VEC3"
		},
		{
			"bufferView":10,
			"componentType":5126,
			"count":24,
			"type":"VEC2"
		},
		{
			"bufferView":11,
			"componentType":5123,
			"count":36,
			"type":"SCALAR"
		}
	],
	"bufferViews":[
		{
			"buffer":0,
			"byteLength":11376,
			"byteOffset":0,
			"target":34962
		},
		{
			"buffer":0,
			"byteLength":11376,
			"byteOffset":11376,
			"target":34962
		},
		{
			"buffer":0,
			"byteLength":7584,
			"byteOffset":22752,
			"target":34962
		},
		{
			"buffer":0,
			"byteLength":3000,
			"byteOffset":30336,
			"target":34963
		},
		{
			"buffer":0,
			"byteLength":2592,
			"byteOffset":33336,
			"target":34962
		},
		{
			"buffer":0,
			"byteLength":2592,
			"byteOffset":35928,
			"target":34962
		},
		{
			"buffer":0,
			"byteLength":1728,
			"byteOffset":38520,
			"target":34962
		},
		{
			"buffer":0,
			"byteLength":648,
			"byteOffset":40248,
			"target":34963
		},
		{
			"buffer":0,
			"byteLength":288,
			"byteOffset":40896,
			"target":34962
		},
		{
			"buffer":0,
			"byteLength":288,
			"byteOffset":41184,
			"target":34962
		},
		{
			"buffer":0,
			"byteLength":192,
			"byteOffset":41472,
			"target":34962
		},
		{
			"buffer":0,
			"byteLength":72,
			"byteOffset":41664,
			"target":34963
		}
	],
	"samplers":[
		{
			"magFilter":9729,
			"minFilter":9987
		}
	],
	"buffers":[
		{
			"byteLength":41736,
			"uri":"lockplate.bin"
		}
	]
}
